G75*
%MOIN*%
%OFA0B0*%
%FSLAX25Y25*%
%IPPOS*%
%LPD*%
%AMOC8*
5,1,8,0,0,1.08239X$1,22.5*
%
%ADD10C,0.00000*%
%ADD11R,0.06500X0.06500*%
%ADD12C,0.06500*%
%ADD13R,0.08000X0.08000*%
%ADD14C,0.08000*%
%ADD15C,0.07400*%
%ADD16C,0.08500*%
%ADD17C,0.06000*%
%ADD18C,0.17000*%
%ADD19C,0.03937*%
%ADD20C,0.02978*%
D10*
X0015000Y0012811D02*
X0015000Y0304150D01*
X0020512Y0304150D02*
X0020514Y0304308D01*
X0020520Y0304466D01*
X0020530Y0304624D01*
X0020544Y0304782D01*
X0020562Y0304939D01*
X0020583Y0305096D01*
X0020609Y0305252D01*
X0020639Y0305408D01*
X0020672Y0305563D01*
X0020710Y0305716D01*
X0020751Y0305869D01*
X0020796Y0306021D01*
X0020845Y0306172D01*
X0020898Y0306321D01*
X0020954Y0306469D01*
X0021014Y0306615D01*
X0021078Y0306760D01*
X0021146Y0306903D01*
X0021217Y0307045D01*
X0021291Y0307185D01*
X0021369Y0307322D01*
X0021451Y0307458D01*
X0021535Y0307592D01*
X0021624Y0307723D01*
X0021715Y0307852D01*
X0021810Y0307979D01*
X0021907Y0308104D01*
X0022008Y0308226D01*
X0022112Y0308345D01*
X0022219Y0308462D01*
X0022329Y0308576D01*
X0022442Y0308687D01*
X0022557Y0308796D01*
X0022675Y0308901D01*
X0022796Y0309003D01*
X0022919Y0309103D01*
X0023045Y0309199D01*
X0023173Y0309292D01*
X0023303Y0309382D01*
X0023436Y0309468D01*
X0023571Y0309552D01*
X0023707Y0309631D01*
X0023846Y0309708D01*
X0023987Y0309780D01*
X0024129Y0309850D01*
X0024273Y0309915D01*
X0024419Y0309977D01*
X0024566Y0310035D01*
X0024715Y0310090D01*
X0024865Y0310141D01*
X0025016Y0310188D01*
X0025168Y0310231D01*
X0025321Y0310270D01*
X0025476Y0310306D01*
X0025631Y0310337D01*
X0025787Y0310365D01*
X0025943Y0310389D01*
X0026100Y0310409D01*
X0026258Y0310425D01*
X0026415Y0310437D01*
X0026574Y0310445D01*
X0026732Y0310449D01*
X0026890Y0310449D01*
X0027048Y0310445D01*
X0027207Y0310437D01*
X0027364Y0310425D01*
X0027522Y0310409D01*
X0027679Y0310389D01*
X0027835Y0310365D01*
X0027991Y0310337D01*
X0028146Y0310306D01*
X0028301Y0310270D01*
X0028454Y0310231D01*
X0028606Y0310188D01*
X0028757Y0310141D01*
X0028907Y0310090D01*
X0029056Y0310035D01*
X0029203Y0309977D01*
X0029349Y0309915D01*
X0029493Y0309850D01*
X0029635Y0309780D01*
X0029776Y0309708D01*
X0029915Y0309631D01*
X0030051Y0309552D01*
X0030186Y0309468D01*
X0030319Y0309382D01*
X0030449Y0309292D01*
X0030577Y0309199D01*
X0030703Y0309103D01*
X0030826Y0309003D01*
X0030947Y0308901D01*
X0031065Y0308796D01*
X0031180Y0308687D01*
X0031293Y0308576D01*
X0031403Y0308462D01*
X0031510Y0308345D01*
X0031614Y0308226D01*
X0031715Y0308104D01*
X0031812Y0307979D01*
X0031907Y0307852D01*
X0031998Y0307723D01*
X0032087Y0307592D01*
X0032171Y0307458D01*
X0032253Y0307322D01*
X0032331Y0307185D01*
X0032405Y0307045D01*
X0032476Y0306903D01*
X0032544Y0306760D01*
X0032608Y0306615D01*
X0032668Y0306469D01*
X0032724Y0306321D01*
X0032777Y0306172D01*
X0032826Y0306021D01*
X0032871Y0305869D01*
X0032912Y0305716D01*
X0032950Y0305563D01*
X0032983Y0305408D01*
X0033013Y0305252D01*
X0033039Y0305096D01*
X0033060Y0304939D01*
X0033078Y0304782D01*
X0033092Y0304624D01*
X0033102Y0304466D01*
X0033108Y0304308D01*
X0033110Y0304150D01*
X0033108Y0303992D01*
X0033102Y0303834D01*
X0033092Y0303676D01*
X0033078Y0303518D01*
X0033060Y0303361D01*
X0033039Y0303204D01*
X0033013Y0303048D01*
X0032983Y0302892D01*
X0032950Y0302737D01*
X0032912Y0302584D01*
X0032871Y0302431D01*
X0032826Y0302279D01*
X0032777Y0302128D01*
X0032724Y0301979D01*
X0032668Y0301831D01*
X0032608Y0301685D01*
X0032544Y0301540D01*
X0032476Y0301397D01*
X0032405Y0301255D01*
X0032331Y0301115D01*
X0032253Y0300978D01*
X0032171Y0300842D01*
X0032087Y0300708D01*
X0031998Y0300577D01*
X0031907Y0300448D01*
X0031812Y0300321D01*
X0031715Y0300196D01*
X0031614Y0300074D01*
X0031510Y0299955D01*
X0031403Y0299838D01*
X0031293Y0299724D01*
X0031180Y0299613D01*
X0031065Y0299504D01*
X0030947Y0299399D01*
X0030826Y0299297D01*
X0030703Y0299197D01*
X0030577Y0299101D01*
X0030449Y0299008D01*
X0030319Y0298918D01*
X0030186Y0298832D01*
X0030051Y0298748D01*
X0029915Y0298669D01*
X0029776Y0298592D01*
X0029635Y0298520D01*
X0029493Y0298450D01*
X0029349Y0298385D01*
X0029203Y0298323D01*
X0029056Y0298265D01*
X0028907Y0298210D01*
X0028757Y0298159D01*
X0028606Y0298112D01*
X0028454Y0298069D01*
X0028301Y0298030D01*
X0028146Y0297994D01*
X0027991Y0297963D01*
X0027835Y0297935D01*
X0027679Y0297911D01*
X0027522Y0297891D01*
X0027364Y0297875D01*
X0027207Y0297863D01*
X0027048Y0297855D01*
X0026890Y0297851D01*
X0026732Y0297851D01*
X0026574Y0297855D01*
X0026415Y0297863D01*
X0026258Y0297875D01*
X0026100Y0297891D01*
X0025943Y0297911D01*
X0025787Y0297935D01*
X0025631Y0297963D01*
X0025476Y0297994D01*
X0025321Y0298030D01*
X0025168Y0298069D01*
X0025016Y0298112D01*
X0024865Y0298159D01*
X0024715Y0298210D01*
X0024566Y0298265D01*
X0024419Y0298323D01*
X0024273Y0298385D01*
X0024129Y0298450D01*
X0023987Y0298520D01*
X0023846Y0298592D01*
X0023707Y0298669D01*
X0023571Y0298748D01*
X0023436Y0298832D01*
X0023303Y0298918D01*
X0023173Y0299008D01*
X0023045Y0299101D01*
X0022919Y0299197D01*
X0022796Y0299297D01*
X0022675Y0299399D01*
X0022557Y0299504D01*
X0022442Y0299613D01*
X0022329Y0299724D01*
X0022219Y0299838D01*
X0022112Y0299955D01*
X0022008Y0300074D01*
X0021907Y0300196D01*
X0021810Y0300321D01*
X0021715Y0300448D01*
X0021624Y0300577D01*
X0021535Y0300708D01*
X0021451Y0300842D01*
X0021369Y0300978D01*
X0021291Y0301115D01*
X0021217Y0301255D01*
X0021146Y0301397D01*
X0021078Y0301540D01*
X0021014Y0301685D01*
X0020954Y0301831D01*
X0020898Y0301979D01*
X0020845Y0302128D01*
X0020796Y0302279D01*
X0020751Y0302431D01*
X0020710Y0302584D01*
X0020672Y0302737D01*
X0020639Y0302892D01*
X0020609Y0303048D01*
X0020583Y0303204D01*
X0020562Y0303361D01*
X0020544Y0303518D01*
X0020530Y0303676D01*
X0020520Y0303834D01*
X0020514Y0303992D01*
X0020512Y0304150D01*
X0015000Y0304150D02*
X0015003Y0304435D01*
X0015014Y0304721D01*
X0015031Y0305006D01*
X0015055Y0305290D01*
X0015086Y0305574D01*
X0015124Y0305857D01*
X0015169Y0306138D01*
X0015220Y0306419D01*
X0015278Y0306699D01*
X0015343Y0306977D01*
X0015415Y0307253D01*
X0015493Y0307527D01*
X0015578Y0307800D01*
X0015670Y0308070D01*
X0015768Y0308338D01*
X0015872Y0308604D01*
X0015983Y0308867D01*
X0016100Y0309127D01*
X0016223Y0309385D01*
X0016353Y0309639D01*
X0016489Y0309890D01*
X0016630Y0310138D01*
X0016778Y0310382D01*
X0016931Y0310623D01*
X0017091Y0310859D01*
X0017256Y0311092D01*
X0017426Y0311321D01*
X0017602Y0311546D01*
X0017784Y0311766D01*
X0017970Y0311982D01*
X0018162Y0312193D01*
X0018359Y0312400D01*
X0018561Y0312602D01*
X0018768Y0312799D01*
X0018979Y0312991D01*
X0019195Y0313177D01*
X0019415Y0313359D01*
X0019640Y0313535D01*
X0019869Y0313705D01*
X0020102Y0313870D01*
X0020338Y0314030D01*
X0020579Y0314183D01*
X0020823Y0314331D01*
X0021071Y0314472D01*
X0021322Y0314608D01*
X0021576Y0314738D01*
X0021834Y0314861D01*
X0022094Y0314978D01*
X0022357Y0315089D01*
X0022623Y0315193D01*
X0022891Y0315291D01*
X0023161Y0315383D01*
X0023434Y0315468D01*
X0023708Y0315546D01*
X0023984Y0315618D01*
X0024262Y0315683D01*
X0024542Y0315741D01*
X0024823Y0315792D01*
X0025104Y0315837D01*
X0025387Y0315875D01*
X0025671Y0315906D01*
X0025955Y0315930D01*
X0026240Y0315947D01*
X0026526Y0315958D01*
X0026811Y0315961D01*
X0381142Y0315961D01*
X0374843Y0304150D02*
X0374845Y0304308D01*
X0374851Y0304466D01*
X0374861Y0304624D01*
X0374875Y0304782D01*
X0374893Y0304939D01*
X0374914Y0305096D01*
X0374940Y0305252D01*
X0374970Y0305408D01*
X0375003Y0305563D01*
X0375041Y0305716D01*
X0375082Y0305869D01*
X0375127Y0306021D01*
X0375176Y0306172D01*
X0375229Y0306321D01*
X0375285Y0306469D01*
X0375345Y0306615D01*
X0375409Y0306760D01*
X0375477Y0306903D01*
X0375548Y0307045D01*
X0375622Y0307185D01*
X0375700Y0307322D01*
X0375782Y0307458D01*
X0375866Y0307592D01*
X0375955Y0307723D01*
X0376046Y0307852D01*
X0376141Y0307979D01*
X0376238Y0308104D01*
X0376339Y0308226D01*
X0376443Y0308345D01*
X0376550Y0308462D01*
X0376660Y0308576D01*
X0376773Y0308687D01*
X0376888Y0308796D01*
X0377006Y0308901D01*
X0377127Y0309003D01*
X0377250Y0309103D01*
X0377376Y0309199D01*
X0377504Y0309292D01*
X0377634Y0309382D01*
X0377767Y0309468D01*
X0377902Y0309552D01*
X0378038Y0309631D01*
X0378177Y0309708D01*
X0378318Y0309780D01*
X0378460Y0309850D01*
X0378604Y0309915D01*
X0378750Y0309977D01*
X0378897Y0310035D01*
X0379046Y0310090D01*
X0379196Y0310141D01*
X0379347Y0310188D01*
X0379499Y0310231D01*
X0379652Y0310270D01*
X0379807Y0310306D01*
X0379962Y0310337D01*
X0380118Y0310365D01*
X0380274Y0310389D01*
X0380431Y0310409D01*
X0380589Y0310425D01*
X0380746Y0310437D01*
X0380905Y0310445D01*
X0381063Y0310449D01*
X0381221Y0310449D01*
X0381379Y0310445D01*
X0381538Y0310437D01*
X0381695Y0310425D01*
X0381853Y0310409D01*
X0382010Y0310389D01*
X0382166Y0310365D01*
X0382322Y0310337D01*
X0382477Y0310306D01*
X0382632Y0310270D01*
X0382785Y0310231D01*
X0382937Y0310188D01*
X0383088Y0310141D01*
X0383238Y0310090D01*
X0383387Y0310035D01*
X0383534Y0309977D01*
X0383680Y0309915D01*
X0383824Y0309850D01*
X0383966Y0309780D01*
X0384107Y0309708D01*
X0384246Y0309631D01*
X0384382Y0309552D01*
X0384517Y0309468D01*
X0384650Y0309382D01*
X0384780Y0309292D01*
X0384908Y0309199D01*
X0385034Y0309103D01*
X0385157Y0309003D01*
X0385278Y0308901D01*
X0385396Y0308796D01*
X0385511Y0308687D01*
X0385624Y0308576D01*
X0385734Y0308462D01*
X0385841Y0308345D01*
X0385945Y0308226D01*
X0386046Y0308104D01*
X0386143Y0307979D01*
X0386238Y0307852D01*
X0386329Y0307723D01*
X0386418Y0307592D01*
X0386502Y0307458D01*
X0386584Y0307322D01*
X0386662Y0307185D01*
X0386736Y0307045D01*
X0386807Y0306903D01*
X0386875Y0306760D01*
X0386939Y0306615D01*
X0386999Y0306469D01*
X0387055Y0306321D01*
X0387108Y0306172D01*
X0387157Y0306021D01*
X0387202Y0305869D01*
X0387243Y0305716D01*
X0387281Y0305563D01*
X0387314Y0305408D01*
X0387344Y0305252D01*
X0387370Y0305096D01*
X0387391Y0304939D01*
X0387409Y0304782D01*
X0387423Y0304624D01*
X0387433Y0304466D01*
X0387439Y0304308D01*
X0387441Y0304150D01*
X0387439Y0303992D01*
X0387433Y0303834D01*
X0387423Y0303676D01*
X0387409Y0303518D01*
X0387391Y0303361D01*
X0387370Y0303204D01*
X0387344Y0303048D01*
X0387314Y0302892D01*
X0387281Y0302737D01*
X0387243Y0302584D01*
X0387202Y0302431D01*
X0387157Y0302279D01*
X0387108Y0302128D01*
X0387055Y0301979D01*
X0386999Y0301831D01*
X0386939Y0301685D01*
X0386875Y0301540D01*
X0386807Y0301397D01*
X0386736Y0301255D01*
X0386662Y0301115D01*
X0386584Y0300978D01*
X0386502Y0300842D01*
X0386418Y0300708D01*
X0386329Y0300577D01*
X0386238Y0300448D01*
X0386143Y0300321D01*
X0386046Y0300196D01*
X0385945Y0300074D01*
X0385841Y0299955D01*
X0385734Y0299838D01*
X0385624Y0299724D01*
X0385511Y0299613D01*
X0385396Y0299504D01*
X0385278Y0299399D01*
X0385157Y0299297D01*
X0385034Y0299197D01*
X0384908Y0299101D01*
X0384780Y0299008D01*
X0384650Y0298918D01*
X0384517Y0298832D01*
X0384382Y0298748D01*
X0384246Y0298669D01*
X0384107Y0298592D01*
X0383966Y0298520D01*
X0383824Y0298450D01*
X0383680Y0298385D01*
X0383534Y0298323D01*
X0383387Y0298265D01*
X0383238Y0298210D01*
X0383088Y0298159D01*
X0382937Y0298112D01*
X0382785Y0298069D01*
X0382632Y0298030D01*
X0382477Y0297994D01*
X0382322Y0297963D01*
X0382166Y0297935D01*
X0382010Y0297911D01*
X0381853Y0297891D01*
X0381695Y0297875D01*
X0381538Y0297863D01*
X0381379Y0297855D01*
X0381221Y0297851D01*
X0381063Y0297851D01*
X0380905Y0297855D01*
X0380746Y0297863D01*
X0380589Y0297875D01*
X0380431Y0297891D01*
X0380274Y0297911D01*
X0380118Y0297935D01*
X0379962Y0297963D01*
X0379807Y0297994D01*
X0379652Y0298030D01*
X0379499Y0298069D01*
X0379347Y0298112D01*
X0379196Y0298159D01*
X0379046Y0298210D01*
X0378897Y0298265D01*
X0378750Y0298323D01*
X0378604Y0298385D01*
X0378460Y0298450D01*
X0378318Y0298520D01*
X0378177Y0298592D01*
X0378038Y0298669D01*
X0377902Y0298748D01*
X0377767Y0298832D01*
X0377634Y0298918D01*
X0377504Y0299008D01*
X0377376Y0299101D01*
X0377250Y0299197D01*
X0377127Y0299297D01*
X0377006Y0299399D01*
X0376888Y0299504D01*
X0376773Y0299613D01*
X0376660Y0299724D01*
X0376550Y0299838D01*
X0376443Y0299955D01*
X0376339Y0300074D01*
X0376238Y0300196D01*
X0376141Y0300321D01*
X0376046Y0300448D01*
X0375955Y0300577D01*
X0375866Y0300708D01*
X0375782Y0300842D01*
X0375700Y0300978D01*
X0375622Y0301115D01*
X0375548Y0301255D01*
X0375477Y0301397D01*
X0375409Y0301540D01*
X0375345Y0301685D01*
X0375285Y0301831D01*
X0375229Y0301979D01*
X0375176Y0302128D01*
X0375127Y0302279D01*
X0375082Y0302431D01*
X0375041Y0302584D01*
X0375003Y0302737D01*
X0374970Y0302892D01*
X0374940Y0303048D01*
X0374914Y0303204D01*
X0374893Y0303361D01*
X0374875Y0303518D01*
X0374861Y0303676D01*
X0374851Y0303834D01*
X0374845Y0303992D01*
X0374843Y0304150D01*
X0381142Y0315961D02*
X0381427Y0315958D01*
X0381713Y0315947D01*
X0381998Y0315930D01*
X0382282Y0315906D01*
X0382566Y0315875D01*
X0382849Y0315837D01*
X0383130Y0315792D01*
X0383411Y0315741D01*
X0383691Y0315683D01*
X0383969Y0315618D01*
X0384245Y0315546D01*
X0384519Y0315468D01*
X0384792Y0315383D01*
X0385062Y0315291D01*
X0385330Y0315193D01*
X0385596Y0315089D01*
X0385859Y0314978D01*
X0386119Y0314861D01*
X0386377Y0314738D01*
X0386631Y0314608D01*
X0386882Y0314472D01*
X0387130Y0314331D01*
X0387374Y0314183D01*
X0387615Y0314030D01*
X0387851Y0313870D01*
X0388084Y0313705D01*
X0388313Y0313535D01*
X0388538Y0313359D01*
X0388758Y0313177D01*
X0388974Y0312991D01*
X0389185Y0312799D01*
X0389392Y0312602D01*
X0389594Y0312400D01*
X0389791Y0312193D01*
X0389983Y0311982D01*
X0390169Y0311766D01*
X0390351Y0311546D01*
X0390527Y0311321D01*
X0390697Y0311092D01*
X0390862Y0310859D01*
X0391022Y0310623D01*
X0391175Y0310382D01*
X0391323Y0310138D01*
X0391464Y0309890D01*
X0391600Y0309639D01*
X0391730Y0309385D01*
X0391853Y0309127D01*
X0391970Y0308867D01*
X0392081Y0308604D01*
X0392185Y0308338D01*
X0392283Y0308070D01*
X0392375Y0307800D01*
X0392460Y0307527D01*
X0392538Y0307253D01*
X0392610Y0306977D01*
X0392675Y0306699D01*
X0392733Y0306419D01*
X0392784Y0306138D01*
X0392829Y0305857D01*
X0392867Y0305574D01*
X0392898Y0305290D01*
X0392922Y0305006D01*
X0392939Y0304721D01*
X0392950Y0304435D01*
X0392953Y0304150D01*
X0392953Y0012811D01*
X0374843Y0012811D02*
X0374845Y0012969D01*
X0374851Y0013127D01*
X0374861Y0013285D01*
X0374875Y0013443D01*
X0374893Y0013600D01*
X0374914Y0013757D01*
X0374940Y0013913D01*
X0374970Y0014069D01*
X0375003Y0014224D01*
X0375041Y0014377D01*
X0375082Y0014530D01*
X0375127Y0014682D01*
X0375176Y0014833D01*
X0375229Y0014982D01*
X0375285Y0015130D01*
X0375345Y0015276D01*
X0375409Y0015421D01*
X0375477Y0015564D01*
X0375548Y0015706D01*
X0375622Y0015846D01*
X0375700Y0015983D01*
X0375782Y0016119D01*
X0375866Y0016253D01*
X0375955Y0016384D01*
X0376046Y0016513D01*
X0376141Y0016640D01*
X0376238Y0016765D01*
X0376339Y0016887D01*
X0376443Y0017006D01*
X0376550Y0017123D01*
X0376660Y0017237D01*
X0376773Y0017348D01*
X0376888Y0017457D01*
X0377006Y0017562D01*
X0377127Y0017664D01*
X0377250Y0017764D01*
X0377376Y0017860D01*
X0377504Y0017953D01*
X0377634Y0018043D01*
X0377767Y0018129D01*
X0377902Y0018213D01*
X0378038Y0018292D01*
X0378177Y0018369D01*
X0378318Y0018441D01*
X0378460Y0018511D01*
X0378604Y0018576D01*
X0378750Y0018638D01*
X0378897Y0018696D01*
X0379046Y0018751D01*
X0379196Y0018802D01*
X0379347Y0018849D01*
X0379499Y0018892D01*
X0379652Y0018931D01*
X0379807Y0018967D01*
X0379962Y0018998D01*
X0380118Y0019026D01*
X0380274Y0019050D01*
X0380431Y0019070D01*
X0380589Y0019086D01*
X0380746Y0019098D01*
X0380905Y0019106D01*
X0381063Y0019110D01*
X0381221Y0019110D01*
X0381379Y0019106D01*
X0381538Y0019098D01*
X0381695Y0019086D01*
X0381853Y0019070D01*
X0382010Y0019050D01*
X0382166Y0019026D01*
X0382322Y0018998D01*
X0382477Y0018967D01*
X0382632Y0018931D01*
X0382785Y0018892D01*
X0382937Y0018849D01*
X0383088Y0018802D01*
X0383238Y0018751D01*
X0383387Y0018696D01*
X0383534Y0018638D01*
X0383680Y0018576D01*
X0383824Y0018511D01*
X0383966Y0018441D01*
X0384107Y0018369D01*
X0384246Y0018292D01*
X0384382Y0018213D01*
X0384517Y0018129D01*
X0384650Y0018043D01*
X0384780Y0017953D01*
X0384908Y0017860D01*
X0385034Y0017764D01*
X0385157Y0017664D01*
X0385278Y0017562D01*
X0385396Y0017457D01*
X0385511Y0017348D01*
X0385624Y0017237D01*
X0385734Y0017123D01*
X0385841Y0017006D01*
X0385945Y0016887D01*
X0386046Y0016765D01*
X0386143Y0016640D01*
X0386238Y0016513D01*
X0386329Y0016384D01*
X0386418Y0016253D01*
X0386502Y0016119D01*
X0386584Y0015983D01*
X0386662Y0015846D01*
X0386736Y0015706D01*
X0386807Y0015564D01*
X0386875Y0015421D01*
X0386939Y0015276D01*
X0386999Y0015130D01*
X0387055Y0014982D01*
X0387108Y0014833D01*
X0387157Y0014682D01*
X0387202Y0014530D01*
X0387243Y0014377D01*
X0387281Y0014224D01*
X0387314Y0014069D01*
X0387344Y0013913D01*
X0387370Y0013757D01*
X0387391Y0013600D01*
X0387409Y0013443D01*
X0387423Y0013285D01*
X0387433Y0013127D01*
X0387439Y0012969D01*
X0387441Y0012811D01*
X0387439Y0012653D01*
X0387433Y0012495D01*
X0387423Y0012337D01*
X0387409Y0012179D01*
X0387391Y0012022D01*
X0387370Y0011865D01*
X0387344Y0011709D01*
X0387314Y0011553D01*
X0387281Y0011398D01*
X0387243Y0011245D01*
X0387202Y0011092D01*
X0387157Y0010940D01*
X0387108Y0010789D01*
X0387055Y0010640D01*
X0386999Y0010492D01*
X0386939Y0010346D01*
X0386875Y0010201D01*
X0386807Y0010058D01*
X0386736Y0009916D01*
X0386662Y0009776D01*
X0386584Y0009639D01*
X0386502Y0009503D01*
X0386418Y0009369D01*
X0386329Y0009238D01*
X0386238Y0009109D01*
X0386143Y0008982D01*
X0386046Y0008857D01*
X0385945Y0008735D01*
X0385841Y0008616D01*
X0385734Y0008499D01*
X0385624Y0008385D01*
X0385511Y0008274D01*
X0385396Y0008165D01*
X0385278Y0008060D01*
X0385157Y0007958D01*
X0385034Y0007858D01*
X0384908Y0007762D01*
X0384780Y0007669D01*
X0384650Y0007579D01*
X0384517Y0007493D01*
X0384382Y0007409D01*
X0384246Y0007330D01*
X0384107Y0007253D01*
X0383966Y0007181D01*
X0383824Y0007111D01*
X0383680Y0007046D01*
X0383534Y0006984D01*
X0383387Y0006926D01*
X0383238Y0006871D01*
X0383088Y0006820D01*
X0382937Y0006773D01*
X0382785Y0006730D01*
X0382632Y0006691D01*
X0382477Y0006655D01*
X0382322Y0006624D01*
X0382166Y0006596D01*
X0382010Y0006572D01*
X0381853Y0006552D01*
X0381695Y0006536D01*
X0381538Y0006524D01*
X0381379Y0006516D01*
X0381221Y0006512D01*
X0381063Y0006512D01*
X0380905Y0006516D01*
X0380746Y0006524D01*
X0380589Y0006536D01*
X0380431Y0006552D01*
X0380274Y0006572D01*
X0380118Y0006596D01*
X0379962Y0006624D01*
X0379807Y0006655D01*
X0379652Y0006691D01*
X0379499Y0006730D01*
X0379347Y0006773D01*
X0379196Y0006820D01*
X0379046Y0006871D01*
X0378897Y0006926D01*
X0378750Y0006984D01*
X0378604Y0007046D01*
X0378460Y0007111D01*
X0378318Y0007181D01*
X0378177Y0007253D01*
X0378038Y0007330D01*
X0377902Y0007409D01*
X0377767Y0007493D01*
X0377634Y0007579D01*
X0377504Y0007669D01*
X0377376Y0007762D01*
X0377250Y0007858D01*
X0377127Y0007958D01*
X0377006Y0008060D01*
X0376888Y0008165D01*
X0376773Y0008274D01*
X0376660Y0008385D01*
X0376550Y0008499D01*
X0376443Y0008616D01*
X0376339Y0008735D01*
X0376238Y0008857D01*
X0376141Y0008982D01*
X0376046Y0009109D01*
X0375955Y0009238D01*
X0375866Y0009369D01*
X0375782Y0009503D01*
X0375700Y0009639D01*
X0375622Y0009776D01*
X0375548Y0009916D01*
X0375477Y0010058D01*
X0375409Y0010201D01*
X0375345Y0010346D01*
X0375285Y0010492D01*
X0375229Y0010640D01*
X0375176Y0010789D01*
X0375127Y0010940D01*
X0375082Y0011092D01*
X0375041Y0011245D01*
X0375003Y0011398D01*
X0374970Y0011553D01*
X0374940Y0011709D01*
X0374914Y0011865D01*
X0374893Y0012022D01*
X0374875Y0012179D01*
X0374861Y0012337D01*
X0374851Y0012495D01*
X0374845Y0012653D01*
X0374843Y0012811D01*
X0381142Y0001000D02*
X0381427Y0001003D01*
X0381713Y0001014D01*
X0381998Y0001031D01*
X0382282Y0001055D01*
X0382566Y0001086D01*
X0382849Y0001124D01*
X0383130Y0001169D01*
X0383411Y0001220D01*
X0383691Y0001278D01*
X0383969Y0001343D01*
X0384245Y0001415D01*
X0384519Y0001493D01*
X0384792Y0001578D01*
X0385062Y0001670D01*
X0385330Y0001768D01*
X0385596Y0001872D01*
X0385859Y0001983D01*
X0386119Y0002100D01*
X0386377Y0002223D01*
X0386631Y0002353D01*
X0386882Y0002489D01*
X0387130Y0002630D01*
X0387374Y0002778D01*
X0387615Y0002931D01*
X0387851Y0003091D01*
X0388084Y0003256D01*
X0388313Y0003426D01*
X0388538Y0003602D01*
X0388758Y0003784D01*
X0388974Y0003970D01*
X0389185Y0004162D01*
X0389392Y0004359D01*
X0389594Y0004561D01*
X0389791Y0004768D01*
X0389983Y0004979D01*
X0390169Y0005195D01*
X0390351Y0005415D01*
X0390527Y0005640D01*
X0390697Y0005869D01*
X0390862Y0006102D01*
X0391022Y0006338D01*
X0391175Y0006579D01*
X0391323Y0006823D01*
X0391464Y0007071D01*
X0391600Y0007322D01*
X0391730Y0007576D01*
X0391853Y0007834D01*
X0391970Y0008094D01*
X0392081Y0008357D01*
X0392185Y0008623D01*
X0392283Y0008891D01*
X0392375Y0009161D01*
X0392460Y0009434D01*
X0392538Y0009708D01*
X0392610Y0009984D01*
X0392675Y0010262D01*
X0392733Y0010542D01*
X0392784Y0010823D01*
X0392829Y0011104D01*
X0392867Y0011387D01*
X0392898Y0011671D01*
X0392922Y0011955D01*
X0392939Y0012240D01*
X0392950Y0012526D01*
X0392953Y0012811D01*
X0381142Y0001000D02*
X0026811Y0001000D01*
X0020512Y0012811D02*
X0020514Y0012969D01*
X0020520Y0013127D01*
X0020530Y0013285D01*
X0020544Y0013443D01*
X0020562Y0013600D01*
X0020583Y0013757D01*
X0020609Y0013913D01*
X0020639Y0014069D01*
X0020672Y0014224D01*
X0020710Y0014377D01*
X0020751Y0014530D01*
X0020796Y0014682D01*
X0020845Y0014833D01*
X0020898Y0014982D01*
X0020954Y0015130D01*
X0021014Y0015276D01*
X0021078Y0015421D01*
X0021146Y0015564D01*
X0021217Y0015706D01*
X0021291Y0015846D01*
X0021369Y0015983D01*
X0021451Y0016119D01*
X0021535Y0016253D01*
X0021624Y0016384D01*
X0021715Y0016513D01*
X0021810Y0016640D01*
X0021907Y0016765D01*
X0022008Y0016887D01*
X0022112Y0017006D01*
X0022219Y0017123D01*
X0022329Y0017237D01*
X0022442Y0017348D01*
X0022557Y0017457D01*
X0022675Y0017562D01*
X0022796Y0017664D01*
X0022919Y0017764D01*
X0023045Y0017860D01*
X0023173Y0017953D01*
X0023303Y0018043D01*
X0023436Y0018129D01*
X0023571Y0018213D01*
X0023707Y0018292D01*
X0023846Y0018369D01*
X0023987Y0018441D01*
X0024129Y0018511D01*
X0024273Y0018576D01*
X0024419Y0018638D01*
X0024566Y0018696D01*
X0024715Y0018751D01*
X0024865Y0018802D01*
X0025016Y0018849D01*
X0025168Y0018892D01*
X0025321Y0018931D01*
X0025476Y0018967D01*
X0025631Y0018998D01*
X0025787Y0019026D01*
X0025943Y0019050D01*
X0026100Y0019070D01*
X0026258Y0019086D01*
X0026415Y0019098D01*
X0026574Y0019106D01*
X0026732Y0019110D01*
X0026890Y0019110D01*
X0027048Y0019106D01*
X0027207Y0019098D01*
X0027364Y0019086D01*
X0027522Y0019070D01*
X0027679Y0019050D01*
X0027835Y0019026D01*
X0027991Y0018998D01*
X0028146Y0018967D01*
X0028301Y0018931D01*
X0028454Y0018892D01*
X0028606Y0018849D01*
X0028757Y0018802D01*
X0028907Y0018751D01*
X0029056Y0018696D01*
X0029203Y0018638D01*
X0029349Y0018576D01*
X0029493Y0018511D01*
X0029635Y0018441D01*
X0029776Y0018369D01*
X0029915Y0018292D01*
X0030051Y0018213D01*
X0030186Y0018129D01*
X0030319Y0018043D01*
X0030449Y0017953D01*
X0030577Y0017860D01*
X0030703Y0017764D01*
X0030826Y0017664D01*
X0030947Y0017562D01*
X0031065Y0017457D01*
X0031180Y0017348D01*
X0031293Y0017237D01*
X0031403Y0017123D01*
X0031510Y0017006D01*
X0031614Y0016887D01*
X0031715Y0016765D01*
X0031812Y0016640D01*
X0031907Y0016513D01*
X0031998Y0016384D01*
X0032087Y0016253D01*
X0032171Y0016119D01*
X0032253Y0015983D01*
X0032331Y0015846D01*
X0032405Y0015706D01*
X0032476Y0015564D01*
X0032544Y0015421D01*
X0032608Y0015276D01*
X0032668Y0015130D01*
X0032724Y0014982D01*
X0032777Y0014833D01*
X0032826Y0014682D01*
X0032871Y0014530D01*
X0032912Y0014377D01*
X0032950Y0014224D01*
X0032983Y0014069D01*
X0033013Y0013913D01*
X0033039Y0013757D01*
X0033060Y0013600D01*
X0033078Y0013443D01*
X0033092Y0013285D01*
X0033102Y0013127D01*
X0033108Y0012969D01*
X0033110Y0012811D01*
X0033108Y0012653D01*
X0033102Y0012495D01*
X0033092Y0012337D01*
X0033078Y0012179D01*
X0033060Y0012022D01*
X0033039Y0011865D01*
X0033013Y0011709D01*
X0032983Y0011553D01*
X0032950Y0011398D01*
X0032912Y0011245D01*
X0032871Y0011092D01*
X0032826Y0010940D01*
X0032777Y0010789D01*
X0032724Y0010640D01*
X0032668Y0010492D01*
X0032608Y0010346D01*
X0032544Y0010201D01*
X0032476Y0010058D01*
X0032405Y0009916D01*
X0032331Y0009776D01*
X0032253Y0009639D01*
X0032171Y0009503D01*
X0032087Y0009369D01*
X0031998Y0009238D01*
X0031907Y0009109D01*
X0031812Y0008982D01*
X0031715Y0008857D01*
X0031614Y0008735D01*
X0031510Y0008616D01*
X0031403Y0008499D01*
X0031293Y0008385D01*
X0031180Y0008274D01*
X0031065Y0008165D01*
X0030947Y0008060D01*
X0030826Y0007958D01*
X0030703Y0007858D01*
X0030577Y0007762D01*
X0030449Y0007669D01*
X0030319Y0007579D01*
X0030186Y0007493D01*
X0030051Y0007409D01*
X0029915Y0007330D01*
X0029776Y0007253D01*
X0029635Y0007181D01*
X0029493Y0007111D01*
X0029349Y0007046D01*
X0029203Y0006984D01*
X0029056Y0006926D01*
X0028907Y0006871D01*
X0028757Y0006820D01*
X0028606Y0006773D01*
X0028454Y0006730D01*
X0028301Y0006691D01*
X0028146Y0006655D01*
X0027991Y0006624D01*
X0027835Y0006596D01*
X0027679Y0006572D01*
X0027522Y0006552D01*
X0027364Y0006536D01*
X0027207Y0006524D01*
X0027048Y0006516D01*
X0026890Y0006512D01*
X0026732Y0006512D01*
X0026574Y0006516D01*
X0026415Y0006524D01*
X0026258Y0006536D01*
X0026100Y0006552D01*
X0025943Y0006572D01*
X0025787Y0006596D01*
X0025631Y0006624D01*
X0025476Y0006655D01*
X0025321Y0006691D01*
X0025168Y0006730D01*
X0025016Y0006773D01*
X0024865Y0006820D01*
X0024715Y0006871D01*
X0024566Y0006926D01*
X0024419Y0006984D01*
X0024273Y0007046D01*
X0024129Y0007111D01*
X0023987Y0007181D01*
X0023846Y0007253D01*
X0023707Y0007330D01*
X0023571Y0007409D01*
X0023436Y0007493D01*
X0023303Y0007579D01*
X0023173Y0007669D01*
X0023045Y0007762D01*
X0022919Y0007858D01*
X0022796Y0007958D01*
X0022675Y0008060D01*
X0022557Y0008165D01*
X0022442Y0008274D01*
X0022329Y0008385D01*
X0022219Y0008499D01*
X0022112Y0008616D01*
X0022008Y0008735D01*
X0021907Y0008857D01*
X0021810Y0008982D01*
X0021715Y0009109D01*
X0021624Y0009238D01*
X0021535Y0009369D01*
X0021451Y0009503D01*
X0021369Y0009639D01*
X0021291Y0009776D01*
X0021217Y0009916D01*
X0021146Y0010058D01*
X0021078Y0010201D01*
X0021014Y0010346D01*
X0020954Y0010492D01*
X0020898Y0010640D01*
X0020845Y0010789D01*
X0020796Y0010940D01*
X0020751Y0011092D01*
X0020710Y0011245D01*
X0020672Y0011398D01*
X0020639Y0011553D01*
X0020609Y0011709D01*
X0020583Y0011865D01*
X0020562Y0012022D01*
X0020544Y0012179D01*
X0020530Y0012337D01*
X0020520Y0012495D01*
X0020514Y0012653D01*
X0020512Y0012811D01*
X0015000Y0012811D02*
X0015003Y0012526D01*
X0015014Y0012240D01*
X0015031Y0011955D01*
X0015055Y0011671D01*
X0015086Y0011387D01*
X0015124Y0011104D01*
X0015169Y0010823D01*
X0015220Y0010542D01*
X0015278Y0010262D01*
X0015343Y0009984D01*
X0015415Y0009708D01*
X0015493Y0009434D01*
X0015578Y0009161D01*
X0015670Y0008891D01*
X0015768Y0008623D01*
X0015872Y0008357D01*
X0015983Y0008094D01*
X0016100Y0007834D01*
X0016223Y0007576D01*
X0016353Y0007322D01*
X0016489Y0007071D01*
X0016630Y0006823D01*
X0016778Y0006579D01*
X0016931Y0006338D01*
X0017091Y0006102D01*
X0017256Y0005869D01*
X0017426Y0005640D01*
X0017602Y0005415D01*
X0017784Y0005195D01*
X0017970Y0004979D01*
X0018162Y0004768D01*
X0018359Y0004561D01*
X0018561Y0004359D01*
X0018768Y0004162D01*
X0018979Y0003970D01*
X0019195Y0003784D01*
X0019415Y0003602D01*
X0019640Y0003426D01*
X0019869Y0003256D01*
X0020102Y0003091D01*
X0020338Y0002931D01*
X0020579Y0002778D01*
X0020823Y0002630D01*
X0021071Y0002489D01*
X0021322Y0002353D01*
X0021576Y0002223D01*
X0021834Y0002100D01*
X0022094Y0001983D01*
X0022357Y0001872D01*
X0022623Y0001768D01*
X0022891Y0001670D01*
X0023161Y0001578D01*
X0023434Y0001493D01*
X0023708Y0001415D01*
X0023984Y0001343D01*
X0024262Y0001278D01*
X0024542Y0001220D01*
X0024823Y0001169D01*
X0025104Y0001124D01*
X0025387Y0001086D01*
X0025671Y0001055D01*
X0025955Y0001031D01*
X0026240Y0001014D01*
X0026526Y0001003D01*
X0026811Y0001000D01*
D11*
X0060000Y0106079D03*
X0030000Y0250921D03*
D12*
X0030000Y0241079D03*
X0132874Y0151000D03*
X0142874Y0151000D03*
X0152874Y0151000D03*
X0162874Y0151000D03*
X0172874Y0151000D03*
X0182874Y0151000D03*
X0192874Y0151000D03*
X0202874Y0151000D03*
X0060000Y0115921D03*
D13*
X0030000Y0131000D03*
X0030000Y0066000D03*
D14*
X0030000Y0046315D03*
X0030000Y0111315D03*
D15*
X0055000Y0286000D03*
X0065000Y0286000D03*
X0075000Y0286000D03*
X0085000Y0286000D03*
X0095000Y0286000D03*
X0105000Y0286000D03*
X0120000Y0286000D03*
X0130000Y0286000D03*
X0140000Y0286000D03*
X0150000Y0286000D03*
X0160000Y0286000D03*
X0170000Y0286000D03*
X0180000Y0286000D03*
D16*
X0275157Y0146315D03*
X0294843Y0146315D03*
X0330157Y0146315D03*
X0349843Y0146315D03*
X0349843Y0097102D03*
X0330157Y0097102D03*
X0294843Y0097102D03*
X0275157Y0097102D03*
D17*
X0235000Y0166000D03*
X0225000Y0166000D03*
X0215000Y0166000D03*
X0205000Y0166000D03*
X0195000Y0166000D03*
X0185000Y0166000D03*
X0175000Y0166000D03*
X0165000Y0166000D03*
X0155000Y0166000D03*
X0145000Y0166000D03*
X0135000Y0166000D03*
X0125000Y0166000D03*
X0115000Y0166000D03*
X0105000Y0166000D03*
X0095000Y0166000D03*
X0085000Y0166000D03*
X0075000Y0166000D03*
X0065000Y0166000D03*
X0055000Y0166000D03*
X0055000Y0256000D03*
X0065000Y0256000D03*
X0075000Y0256000D03*
X0085000Y0256000D03*
X0095000Y0256000D03*
X0105000Y0256000D03*
X0115000Y0256000D03*
X0125000Y0256000D03*
X0135000Y0256000D03*
X0145000Y0256000D03*
X0155000Y0256000D03*
X0165000Y0256000D03*
X0175000Y0256000D03*
X0185000Y0256000D03*
X0195000Y0256000D03*
X0205000Y0256000D03*
X0215000Y0256000D03*
X0225000Y0256000D03*
X0235000Y0256000D03*
X0301969Y0261709D03*
X0311969Y0261709D03*
X0321969Y0261709D03*
X0331969Y0261709D03*
D18*
X0058937Y0216000D03*
X0047126Y0197496D03*
X0035315Y0216000D03*
D19*
X0058937Y0216000D02*
X0064567Y0216000D01*
X0074449Y0206118D01*
X0074449Y0193913D01*
X0062244Y0181709D01*
X0048465Y0181709D01*
X0045315Y0178559D01*
X0045315Y0149425D01*
X0107126Y0087614D01*
X0130354Y0087614D01*
X0185079Y0101787D02*
X0185079Y0116748D01*
X0213425Y0145094D01*
X0249646Y0145094D01*
X0255157Y0139583D01*
X0235000Y0163126D02*
X0231142Y0159268D01*
X0193346Y0159268D01*
X0192874Y0158795D01*
X0192874Y0151000D01*
X0193346Y0159268D02*
X0181732Y0159268D01*
X0175000Y0166000D01*
X0171693Y0158480D02*
X0172874Y0157299D01*
X0172874Y0151000D01*
X0171693Y0158480D02*
X0162520Y0158480D01*
X0155000Y0166000D01*
X0152874Y0156827D02*
X0145000Y0164701D01*
X0145000Y0166000D01*
X0152874Y0156827D02*
X0152874Y0151000D01*
X0115000Y0166000D02*
X0115000Y0212024D01*
X0113819Y0213205D01*
X0086654Y0213205D01*
X0041772Y0258087D01*
X0041772Y0267929D01*
X0060276Y0267929D01*
X0075000Y0282654D01*
X0075000Y0286000D01*
X0105000Y0270134D02*
X0120000Y0285134D01*
X0120000Y0286000D01*
X0140000Y0286000D02*
X0140000Y0275606D01*
X0135000Y0270606D01*
X0135000Y0256000D01*
X0144921Y0256079D02*
X0145000Y0256000D01*
X0144921Y0256079D02*
X0144921Y0270685D01*
X0150000Y0275764D01*
X0150000Y0286000D01*
X0160000Y0286000D02*
X0160000Y0273953D01*
X0154764Y0268717D01*
X0154764Y0256236D01*
X0155000Y0256000D01*
X0164606Y0256394D02*
X0165000Y0256000D01*
X0164606Y0256394D02*
X0164606Y0270685D01*
X0170000Y0276079D01*
X0170000Y0286000D01*
X0180000Y0286000D02*
X0180000Y0276236D01*
X0174449Y0270685D01*
X0174449Y0256551D01*
X0175000Y0256000D01*
X0185000Y0256000D02*
X0185000Y0272575D01*
X0216181Y0303756D01*
X0339803Y0303756D01*
X0370512Y0273047D01*
X0370512Y0087614D01*
X0359094Y0076197D01*
X0296063Y0076197D01*
X0275157Y0097102D01*
X0312638Y0114622D02*
X0312638Y0192339D01*
X0354764Y0234465D01*
X0354764Y0271079D01*
X0332323Y0293520D01*
X0215000Y0293520D01*
X0195000Y0273520D01*
X0195000Y0256000D01*
X0105000Y0256000D02*
X0105000Y0270134D01*
X0235000Y0166000D02*
X0293740Y0224740D01*
X0293740Y0257299D01*
X0298150Y0261709D01*
X0301969Y0261709D01*
X0311969Y0261709D02*
X0311969Y0236551D01*
X0305945Y0230528D01*
X0305945Y0204150D01*
X0313425Y0224228D02*
X0329961Y0224228D01*
X0329961Y0224622D01*
X0235000Y0166000D02*
X0235000Y0163126D01*
X0213819Y0144701D02*
X0213425Y0145094D01*
X0312638Y0114622D02*
X0330157Y0097102D01*
D20*
X0255157Y0139583D03*
X0213819Y0144701D03*
X0185079Y0101787D03*
X0130354Y0087614D03*
X0305945Y0204150D03*
X0313425Y0224228D03*
X0329961Y0224622D03*
M02*
