G75*
%MOIN*%
%OFA0B0*%
%FSLAX25Y25*%
%IPPOS*%
%LPD*%
%AMOC8*
5,1,8,0,0,1.08239X$1,22.5*
%
%ADD10C,0.00000*%
%ADD11C,0.00500*%
%ADD12C,0.00800*%
%ADD13C,0.00100*%
%ADD14C,0.01969*%
%ADD15C,0.00400*%
D10*
X0015000Y0012811D02*
X0015000Y0304150D01*
X0020512Y0304150D02*
X0020514Y0304308D01*
X0020520Y0304466D01*
X0020530Y0304624D01*
X0020544Y0304782D01*
X0020562Y0304939D01*
X0020583Y0305096D01*
X0020609Y0305252D01*
X0020639Y0305408D01*
X0020672Y0305563D01*
X0020710Y0305716D01*
X0020751Y0305869D01*
X0020796Y0306021D01*
X0020845Y0306172D01*
X0020898Y0306321D01*
X0020954Y0306469D01*
X0021014Y0306615D01*
X0021078Y0306760D01*
X0021146Y0306903D01*
X0021217Y0307045D01*
X0021291Y0307185D01*
X0021369Y0307322D01*
X0021451Y0307458D01*
X0021535Y0307592D01*
X0021624Y0307723D01*
X0021715Y0307852D01*
X0021810Y0307979D01*
X0021907Y0308104D01*
X0022008Y0308226D01*
X0022112Y0308345D01*
X0022219Y0308462D01*
X0022329Y0308576D01*
X0022442Y0308687D01*
X0022557Y0308796D01*
X0022675Y0308901D01*
X0022796Y0309003D01*
X0022919Y0309103D01*
X0023045Y0309199D01*
X0023173Y0309292D01*
X0023303Y0309382D01*
X0023436Y0309468D01*
X0023571Y0309552D01*
X0023707Y0309631D01*
X0023846Y0309708D01*
X0023987Y0309780D01*
X0024129Y0309850D01*
X0024273Y0309915D01*
X0024419Y0309977D01*
X0024566Y0310035D01*
X0024715Y0310090D01*
X0024865Y0310141D01*
X0025016Y0310188D01*
X0025168Y0310231D01*
X0025321Y0310270D01*
X0025476Y0310306D01*
X0025631Y0310337D01*
X0025787Y0310365D01*
X0025943Y0310389D01*
X0026100Y0310409D01*
X0026258Y0310425D01*
X0026415Y0310437D01*
X0026574Y0310445D01*
X0026732Y0310449D01*
X0026890Y0310449D01*
X0027048Y0310445D01*
X0027207Y0310437D01*
X0027364Y0310425D01*
X0027522Y0310409D01*
X0027679Y0310389D01*
X0027835Y0310365D01*
X0027991Y0310337D01*
X0028146Y0310306D01*
X0028301Y0310270D01*
X0028454Y0310231D01*
X0028606Y0310188D01*
X0028757Y0310141D01*
X0028907Y0310090D01*
X0029056Y0310035D01*
X0029203Y0309977D01*
X0029349Y0309915D01*
X0029493Y0309850D01*
X0029635Y0309780D01*
X0029776Y0309708D01*
X0029915Y0309631D01*
X0030051Y0309552D01*
X0030186Y0309468D01*
X0030319Y0309382D01*
X0030449Y0309292D01*
X0030577Y0309199D01*
X0030703Y0309103D01*
X0030826Y0309003D01*
X0030947Y0308901D01*
X0031065Y0308796D01*
X0031180Y0308687D01*
X0031293Y0308576D01*
X0031403Y0308462D01*
X0031510Y0308345D01*
X0031614Y0308226D01*
X0031715Y0308104D01*
X0031812Y0307979D01*
X0031907Y0307852D01*
X0031998Y0307723D01*
X0032087Y0307592D01*
X0032171Y0307458D01*
X0032253Y0307322D01*
X0032331Y0307185D01*
X0032405Y0307045D01*
X0032476Y0306903D01*
X0032544Y0306760D01*
X0032608Y0306615D01*
X0032668Y0306469D01*
X0032724Y0306321D01*
X0032777Y0306172D01*
X0032826Y0306021D01*
X0032871Y0305869D01*
X0032912Y0305716D01*
X0032950Y0305563D01*
X0032983Y0305408D01*
X0033013Y0305252D01*
X0033039Y0305096D01*
X0033060Y0304939D01*
X0033078Y0304782D01*
X0033092Y0304624D01*
X0033102Y0304466D01*
X0033108Y0304308D01*
X0033110Y0304150D01*
X0033108Y0303992D01*
X0033102Y0303834D01*
X0033092Y0303676D01*
X0033078Y0303518D01*
X0033060Y0303361D01*
X0033039Y0303204D01*
X0033013Y0303048D01*
X0032983Y0302892D01*
X0032950Y0302737D01*
X0032912Y0302584D01*
X0032871Y0302431D01*
X0032826Y0302279D01*
X0032777Y0302128D01*
X0032724Y0301979D01*
X0032668Y0301831D01*
X0032608Y0301685D01*
X0032544Y0301540D01*
X0032476Y0301397D01*
X0032405Y0301255D01*
X0032331Y0301115D01*
X0032253Y0300978D01*
X0032171Y0300842D01*
X0032087Y0300708D01*
X0031998Y0300577D01*
X0031907Y0300448D01*
X0031812Y0300321D01*
X0031715Y0300196D01*
X0031614Y0300074D01*
X0031510Y0299955D01*
X0031403Y0299838D01*
X0031293Y0299724D01*
X0031180Y0299613D01*
X0031065Y0299504D01*
X0030947Y0299399D01*
X0030826Y0299297D01*
X0030703Y0299197D01*
X0030577Y0299101D01*
X0030449Y0299008D01*
X0030319Y0298918D01*
X0030186Y0298832D01*
X0030051Y0298748D01*
X0029915Y0298669D01*
X0029776Y0298592D01*
X0029635Y0298520D01*
X0029493Y0298450D01*
X0029349Y0298385D01*
X0029203Y0298323D01*
X0029056Y0298265D01*
X0028907Y0298210D01*
X0028757Y0298159D01*
X0028606Y0298112D01*
X0028454Y0298069D01*
X0028301Y0298030D01*
X0028146Y0297994D01*
X0027991Y0297963D01*
X0027835Y0297935D01*
X0027679Y0297911D01*
X0027522Y0297891D01*
X0027364Y0297875D01*
X0027207Y0297863D01*
X0027048Y0297855D01*
X0026890Y0297851D01*
X0026732Y0297851D01*
X0026574Y0297855D01*
X0026415Y0297863D01*
X0026258Y0297875D01*
X0026100Y0297891D01*
X0025943Y0297911D01*
X0025787Y0297935D01*
X0025631Y0297963D01*
X0025476Y0297994D01*
X0025321Y0298030D01*
X0025168Y0298069D01*
X0025016Y0298112D01*
X0024865Y0298159D01*
X0024715Y0298210D01*
X0024566Y0298265D01*
X0024419Y0298323D01*
X0024273Y0298385D01*
X0024129Y0298450D01*
X0023987Y0298520D01*
X0023846Y0298592D01*
X0023707Y0298669D01*
X0023571Y0298748D01*
X0023436Y0298832D01*
X0023303Y0298918D01*
X0023173Y0299008D01*
X0023045Y0299101D01*
X0022919Y0299197D01*
X0022796Y0299297D01*
X0022675Y0299399D01*
X0022557Y0299504D01*
X0022442Y0299613D01*
X0022329Y0299724D01*
X0022219Y0299838D01*
X0022112Y0299955D01*
X0022008Y0300074D01*
X0021907Y0300196D01*
X0021810Y0300321D01*
X0021715Y0300448D01*
X0021624Y0300577D01*
X0021535Y0300708D01*
X0021451Y0300842D01*
X0021369Y0300978D01*
X0021291Y0301115D01*
X0021217Y0301255D01*
X0021146Y0301397D01*
X0021078Y0301540D01*
X0021014Y0301685D01*
X0020954Y0301831D01*
X0020898Y0301979D01*
X0020845Y0302128D01*
X0020796Y0302279D01*
X0020751Y0302431D01*
X0020710Y0302584D01*
X0020672Y0302737D01*
X0020639Y0302892D01*
X0020609Y0303048D01*
X0020583Y0303204D01*
X0020562Y0303361D01*
X0020544Y0303518D01*
X0020530Y0303676D01*
X0020520Y0303834D01*
X0020514Y0303992D01*
X0020512Y0304150D01*
X0015000Y0304150D02*
X0015003Y0304435D01*
X0015014Y0304721D01*
X0015031Y0305006D01*
X0015055Y0305290D01*
X0015086Y0305574D01*
X0015124Y0305857D01*
X0015169Y0306138D01*
X0015220Y0306419D01*
X0015278Y0306699D01*
X0015343Y0306977D01*
X0015415Y0307253D01*
X0015493Y0307527D01*
X0015578Y0307800D01*
X0015670Y0308070D01*
X0015768Y0308338D01*
X0015872Y0308604D01*
X0015983Y0308867D01*
X0016100Y0309127D01*
X0016223Y0309385D01*
X0016353Y0309639D01*
X0016489Y0309890D01*
X0016630Y0310138D01*
X0016778Y0310382D01*
X0016931Y0310623D01*
X0017091Y0310859D01*
X0017256Y0311092D01*
X0017426Y0311321D01*
X0017602Y0311546D01*
X0017784Y0311766D01*
X0017970Y0311982D01*
X0018162Y0312193D01*
X0018359Y0312400D01*
X0018561Y0312602D01*
X0018768Y0312799D01*
X0018979Y0312991D01*
X0019195Y0313177D01*
X0019415Y0313359D01*
X0019640Y0313535D01*
X0019869Y0313705D01*
X0020102Y0313870D01*
X0020338Y0314030D01*
X0020579Y0314183D01*
X0020823Y0314331D01*
X0021071Y0314472D01*
X0021322Y0314608D01*
X0021576Y0314738D01*
X0021834Y0314861D01*
X0022094Y0314978D01*
X0022357Y0315089D01*
X0022623Y0315193D01*
X0022891Y0315291D01*
X0023161Y0315383D01*
X0023434Y0315468D01*
X0023708Y0315546D01*
X0023984Y0315618D01*
X0024262Y0315683D01*
X0024542Y0315741D01*
X0024823Y0315792D01*
X0025104Y0315837D01*
X0025387Y0315875D01*
X0025671Y0315906D01*
X0025955Y0315930D01*
X0026240Y0315947D01*
X0026526Y0315958D01*
X0026811Y0315961D01*
X0381142Y0315961D01*
X0374843Y0304150D02*
X0374845Y0304308D01*
X0374851Y0304466D01*
X0374861Y0304624D01*
X0374875Y0304782D01*
X0374893Y0304939D01*
X0374914Y0305096D01*
X0374940Y0305252D01*
X0374970Y0305408D01*
X0375003Y0305563D01*
X0375041Y0305716D01*
X0375082Y0305869D01*
X0375127Y0306021D01*
X0375176Y0306172D01*
X0375229Y0306321D01*
X0375285Y0306469D01*
X0375345Y0306615D01*
X0375409Y0306760D01*
X0375477Y0306903D01*
X0375548Y0307045D01*
X0375622Y0307185D01*
X0375700Y0307322D01*
X0375782Y0307458D01*
X0375866Y0307592D01*
X0375955Y0307723D01*
X0376046Y0307852D01*
X0376141Y0307979D01*
X0376238Y0308104D01*
X0376339Y0308226D01*
X0376443Y0308345D01*
X0376550Y0308462D01*
X0376660Y0308576D01*
X0376773Y0308687D01*
X0376888Y0308796D01*
X0377006Y0308901D01*
X0377127Y0309003D01*
X0377250Y0309103D01*
X0377376Y0309199D01*
X0377504Y0309292D01*
X0377634Y0309382D01*
X0377767Y0309468D01*
X0377902Y0309552D01*
X0378038Y0309631D01*
X0378177Y0309708D01*
X0378318Y0309780D01*
X0378460Y0309850D01*
X0378604Y0309915D01*
X0378750Y0309977D01*
X0378897Y0310035D01*
X0379046Y0310090D01*
X0379196Y0310141D01*
X0379347Y0310188D01*
X0379499Y0310231D01*
X0379652Y0310270D01*
X0379807Y0310306D01*
X0379962Y0310337D01*
X0380118Y0310365D01*
X0380274Y0310389D01*
X0380431Y0310409D01*
X0380589Y0310425D01*
X0380746Y0310437D01*
X0380905Y0310445D01*
X0381063Y0310449D01*
X0381221Y0310449D01*
X0381379Y0310445D01*
X0381538Y0310437D01*
X0381695Y0310425D01*
X0381853Y0310409D01*
X0382010Y0310389D01*
X0382166Y0310365D01*
X0382322Y0310337D01*
X0382477Y0310306D01*
X0382632Y0310270D01*
X0382785Y0310231D01*
X0382937Y0310188D01*
X0383088Y0310141D01*
X0383238Y0310090D01*
X0383387Y0310035D01*
X0383534Y0309977D01*
X0383680Y0309915D01*
X0383824Y0309850D01*
X0383966Y0309780D01*
X0384107Y0309708D01*
X0384246Y0309631D01*
X0384382Y0309552D01*
X0384517Y0309468D01*
X0384650Y0309382D01*
X0384780Y0309292D01*
X0384908Y0309199D01*
X0385034Y0309103D01*
X0385157Y0309003D01*
X0385278Y0308901D01*
X0385396Y0308796D01*
X0385511Y0308687D01*
X0385624Y0308576D01*
X0385734Y0308462D01*
X0385841Y0308345D01*
X0385945Y0308226D01*
X0386046Y0308104D01*
X0386143Y0307979D01*
X0386238Y0307852D01*
X0386329Y0307723D01*
X0386418Y0307592D01*
X0386502Y0307458D01*
X0386584Y0307322D01*
X0386662Y0307185D01*
X0386736Y0307045D01*
X0386807Y0306903D01*
X0386875Y0306760D01*
X0386939Y0306615D01*
X0386999Y0306469D01*
X0387055Y0306321D01*
X0387108Y0306172D01*
X0387157Y0306021D01*
X0387202Y0305869D01*
X0387243Y0305716D01*
X0387281Y0305563D01*
X0387314Y0305408D01*
X0387344Y0305252D01*
X0387370Y0305096D01*
X0387391Y0304939D01*
X0387409Y0304782D01*
X0387423Y0304624D01*
X0387433Y0304466D01*
X0387439Y0304308D01*
X0387441Y0304150D01*
X0387439Y0303992D01*
X0387433Y0303834D01*
X0387423Y0303676D01*
X0387409Y0303518D01*
X0387391Y0303361D01*
X0387370Y0303204D01*
X0387344Y0303048D01*
X0387314Y0302892D01*
X0387281Y0302737D01*
X0387243Y0302584D01*
X0387202Y0302431D01*
X0387157Y0302279D01*
X0387108Y0302128D01*
X0387055Y0301979D01*
X0386999Y0301831D01*
X0386939Y0301685D01*
X0386875Y0301540D01*
X0386807Y0301397D01*
X0386736Y0301255D01*
X0386662Y0301115D01*
X0386584Y0300978D01*
X0386502Y0300842D01*
X0386418Y0300708D01*
X0386329Y0300577D01*
X0386238Y0300448D01*
X0386143Y0300321D01*
X0386046Y0300196D01*
X0385945Y0300074D01*
X0385841Y0299955D01*
X0385734Y0299838D01*
X0385624Y0299724D01*
X0385511Y0299613D01*
X0385396Y0299504D01*
X0385278Y0299399D01*
X0385157Y0299297D01*
X0385034Y0299197D01*
X0384908Y0299101D01*
X0384780Y0299008D01*
X0384650Y0298918D01*
X0384517Y0298832D01*
X0384382Y0298748D01*
X0384246Y0298669D01*
X0384107Y0298592D01*
X0383966Y0298520D01*
X0383824Y0298450D01*
X0383680Y0298385D01*
X0383534Y0298323D01*
X0383387Y0298265D01*
X0383238Y0298210D01*
X0383088Y0298159D01*
X0382937Y0298112D01*
X0382785Y0298069D01*
X0382632Y0298030D01*
X0382477Y0297994D01*
X0382322Y0297963D01*
X0382166Y0297935D01*
X0382010Y0297911D01*
X0381853Y0297891D01*
X0381695Y0297875D01*
X0381538Y0297863D01*
X0381379Y0297855D01*
X0381221Y0297851D01*
X0381063Y0297851D01*
X0380905Y0297855D01*
X0380746Y0297863D01*
X0380589Y0297875D01*
X0380431Y0297891D01*
X0380274Y0297911D01*
X0380118Y0297935D01*
X0379962Y0297963D01*
X0379807Y0297994D01*
X0379652Y0298030D01*
X0379499Y0298069D01*
X0379347Y0298112D01*
X0379196Y0298159D01*
X0379046Y0298210D01*
X0378897Y0298265D01*
X0378750Y0298323D01*
X0378604Y0298385D01*
X0378460Y0298450D01*
X0378318Y0298520D01*
X0378177Y0298592D01*
X0378038Y0298669D01*
X0377902Y0298748D01*
X0377767Y0298832D01*
X0377634Y0298918D01*
X0377504Y0299008D01*
X0377376Y0299101D01*
X0377250Y0299197D01*
X0377127Y0299297D01*
X0377006Y0299399D01*
X0376888Y0299504D01*
X0376773Y0299613D01*
X0376660Y0299724D01*
X0376550Y0299838D01*
X0376443Y0299955D01*
X0376339Y0300074D01*
X0376238Y0300196D01*
X0376141Y0300321D01*
X0376046Y0300448D01*
X0375955Y0300577D01*
X0375866Y0300708D01*
X0375782Y0300842D01*
X0375700Y0300978D01*
X0375622Y0301115D01*
X0375548Y0301255D01*
X0375477Y0301397D01*
X0375409Y0301540D01*
X0375345Y0301685D01*
X0375285Y0301831D01*
X0375229Y0301979D01*
X0375176Y0302128D01*
X0375127Y0302279D01*
X0375082Y0302431D01*
X0375041Y0302584D01*
X0375003Y0302737D01*
X0374970Y0302892D01*
X0374940Y0303048D01*
X0374914Y0303204D01*
X0374893Y0303361D01*
X0374875Y0303518D01*
X0374861Y0303676D01*
X0374851Y0303834D01*
X0374845Y0303992D01*
X0374843Y0304150D01*
X0381142Y0315961D02*
X0381427Y0315958D01*
X0381713Y0315947D01*
X0381998Y0315930D01*
X0382282Y0315906D01*
X0382566Y0315875D01*
X0382849Y0315837D01*
X0383130Y0315792D01*
X0383411Y0315741D01*
X0383691Y0315683D01*
X0383969Y0315618D01*
X0384245Y0315546D01*
X0384519Y0315468D01*
X0384792Y0315383D01*
X0385062Y0315291D01*
X0385330Y0315193D01*
X0385596Y0315089D01*
X0385859Y0314978D01*
X0386119Y0314861D01*
X0386377Y0314738D01*
X0386631Y0314608D01*
X0386882Y0314472D01*
X0387130Y0314331D01*
X0387374Y0314183D01*
X0387615Y0314030D01*
X0387851Y0313870D01*
X0388084Y0313705D01*
X0388313Y0313535D01*
X0388538Y0313359D01*
X0388758Y0313177D01*
X0388974Y0312991D01*
X0389185Y0312799D01*
X0389392Y0312602D01*
X0389594Y0312400D01*
X0389791Y0312193D01*
X0389983Y0311982D01*
X0390169Y0311766D01*
X0390351Y0311546D01*
X0390527Y0311321D01*
X0390697Y0311092D01*
X0390862Y0310859D01*
X0391022Y0310623D01*
X0391175Y0310382D01*
X0391323Y0310138D01*
X0391464Y0309890D01*
X0391600Y0309639D01*
X0391730Y0309385D01*
X0391853Y0309127D01*
X0391970Y0308867D01*
X0392081Y0308604D01*
X0392185Y0308338D01*
X0392283Y0308070D01*
X0392375Y0307800D01*
X0392460Y0307527D01*
X0392538Y0307253D01*
X0392610Y0306977D01*
X0392675Y0306699D01*
X0392733Y0306419D01*
X0392784Y0306138D01*
X0392829Y0305857D01*
X0392867Y0305574D01*
X0392898Y0305290D01*
X0392922Y0305006D01*
X0392939Y0304721D01*
X0392950Y0304435D01*
X0392953Y0304150D01*
X0392953Y0012811D01*
X0374843Y0012811D02*
X0374845Y0012969D01*
X0374851Y0013127D01*
X0374861Y0013285D01*
X0374875Y0013443D01*
X0374893Y0013600D01*
X0374914Y0013757D01*
X0374940Y0013913D01*
X0374970Y0014069D01*
X0375003Y0014224D01*
X0375041Y0014377D01*
X0375082Y0014530D01*
X0375127Y0014682D01*
X0375176Y0014833D01*
X0375229Y0014982D01*
X0375285Y0015130D01*
X0375345Y0015276D01*
X0375409Y0015421D01*
X0375477Y0015564D01*
X0375548Y0015706D01*
X0375622Y0015846D01*
X0375700Y0015983D01*
X0375782Y0016119D01*
X0375866Y0016253D01*
X0375955Y0016384D01*
X0376046Y0016513D01*
X0376141Y0016640D01*
X0376238Y0016765D01*
X0376339Y0016887D01*
X0376443Y0017006D01*
X0376550Y0017123D01*
X0376660Y0017237D01*
X0376773Y0017348D01*
X0376888Y0017457D01*
X0377006Y0017562D01*
X0377127Y0017664D01*
X0377250Y0017764D01*
X0377376Y0017860D01*
X0377504Y0017953D01*
X0377634Y0018043D01*
X0377767Y0018129D01*
X0377902Y0018213D01*
X0378038Y0018292D01*
X0378177Y0018369D01*
X0378318Y0018441D01*
X0378460Y0018511D01*
X0378604Y0018576D01*
X0378750Y0018638D01*
X0378897Y0018696D01*
X0379046Y0018751D01*
X0379196Y0018802D01*
X0379347Y0018849D01*
X0379499Y0018892D01*
X0379652Y0018931D01*
X0379807Y0018967D01*
X0379962Y0018998D01*
X0380118Y0019026D01*
X0380274Y0019050D01*
X0380431Y0019070D01*
X0380589Y0019086D01*
X0380746Y0019098D01*
X0380905Y0019106D01*
X0381063Y0019110D01*
X0381221Y0019110D01*
X0381379Y0019106D01*
X0381538Y0019098D01*
X0381695Y0019086D01*
X0381853Y0019070D01*
X0382010Y0019050D01*
X0382166Y0019026D01*
X0382322Y0018998D01*
X0382477Y0018967D01*
X0382632Y0018931D01*
X0382785Y0018892D01*
X0382937Y0018849D01*
X0383088Y0018802D01*
X0383238Y0018751D01*
X0383387Y0018696D01*
X0383534Y0018638D01*
X0383680Y0018576D01*
X0383824Y0018511D01*
X0383966Y0018441D01*
X0384107Y0018369D01*
X0384246Y0018292D01*
X0384382Y0018213D01*
X0384517Y0018129D01*
X0384650Y0018043D01*
X0384780Y0017953D01*
X0384908Y0017860D01*
X0385034Y0017764D01*
X0385157Y0017664D01*
X0385278Y0017562D01*
X0385396Y0017457D01*
X0385511Y0017348D01*
X0385624Y0017237D01*
X0385734Y0017123D01*
X0385841Y0017006D01*
X0385945Y0016887D01*
X0386046Y0016765D01*
X0386143Y0016640D01*
X0386238Y0016513D01*
X0386329Y0016384D01*
X0386418Y0016253D01*
X0386502Y0016119D01*
X0386584Y0015983D01*
X0386662Y0015846D01*
X0386736Y0015706D01*
X0386807Y0015564D01*
X0386875Y0015421D01*
X0386939Y0015276D01*
X0386999Y0015130D01*
X0387055Y0014982D01*
X0387108Y0014833D01*
X0387157Y0014682D01*
X0387202Y0014530D01*
X0387243Y0014377D01*
X0387281Y0014224D01*
X0387314Y0014069D01*
X0387344Y0013913D01*
X0387370Y0013757D01*
X0387391Y0013600D01*
X0387409Y0013443D01*
X0387423Y0013285D01*
X0387433Y0013127D01*
X0387439Y0012969D01*
X0387441Y0012811D01*
X0387439Y0012653D01*
X0387433Y0012495D01*
X0387423Y0012337D01*
X0387409Y0012179D01*
X0387391Y0012022D01*
X0387370Y0011865D01*
X0387344Y0011709D01*
X0387314Y0011553D01*
X0387281Y0011398D01*
X0387243Y0011245D01*
X0387202Y0011092D01*
X0387157Y0010940D01*
X0387108Y0010789D01*
X0387055Y0010640D01*
X0386999Y0010492D01*
X0386939Y0010346D01*
X0386875Y0010201D01*
X0386807Y0010058D01*
X0386736Y0009916D01*
X0386662Y0009776D01*
X0386584Y0009639D01*
X0386502Y0009503D01*
X0386418Y0009369D01*
X0386329Y0009238D01*
X0386238Y0009109D01*
X0386143Y0008982D01*
X0386046Y0008857D01*
X0385945Y0008735D01*
X0385841Y0008616D01*
X0385734Y0008499D01*
X0385624Y0008385D01*
X0385511Y0008274D01*
X0385396Y0008165D01*
X0385278Y0008060D01*
X0385157Y0007958D01*
X0385034Y0007858D01*
X0384908Y0007762D01*
X0384780Y0007669D01*
X0384650Y0007579D01*
X0384517Y0007493D01*
X0384382Y0007409D01*
X0384246Y0007330D01*
X0384107Y0007253D01*
X0383966Y0007181D01*
X0383824Y0007111D01*
X0383680Y0007046D01*
X0383534Y0006984D01*
X0383387Y0006926D01*
X0383238Y0006871D01*
X0383088Y0006820D01*
X0382937Y0006773D01*
X0382785Y0006730D01*
X0382632Y0006691D01*
X0382477Y0006655D01*
X0382322Y0006624D01*
X0382166Y0006596D01*
X0382010Y0006572D01*
X0381853Y0006552D01*
X0381695Y0006536D01*
X0381538Y0006524D01*
X0381379Y0006516D01*
X0381221Y0006512D01*
X0381063Y0006512D01*
X0380905Y0006516D01*
X0380746Y0006524D01*
X0380589Y0006536D01*
X0380431Y0006552D01*
X0380274Y0006572D01*
X0380118Y0006596D01*
X0379962Y0006624D01*
X0379807Y0006655D01*
X0379652Y0006691D01*
X0379499Y0006730D01*
X0379347Y0006773D01*
X0379196Y0006820D01*
X0379046Y0006871D01*
X0378897Y0006926D01*
X0378750Y0006984D01*
X0378604Y0007046D01*
X0378460Y0007111D01*
X0378318Y0007181D01*
X0378177Y0007253D01*
X0378038Y0007330D01*
X0377902Y0007409D01*
X0377767Y0007493D01*
X0377634Y0007579D01*
X0377504Y0007669D01*
X0377376Y0007762D01*
X0377250Y0007858D01*
X0377127Y0007958D01*
X0377006Y0008060D01*
X0376888Y0008165D01*
X0376773Y0008274D01*
X0376660Y0008385D01*
X0376550Y0008499D01*
X0376443Y0008616D01*
X0376339Y0008735D01*
X0376238Y0008857D01*
X0376141Y0008982D01*
X0376046Y0009109D01*
X0375955Y0009238D01*
X0375866Y0009369D01*
X0375782Y0009503D01*
X0375700Y0009639D01*
X0375622Y0009776D01*
X0375548Y0009916D01*
X0375477Y0010058D01*
X0375409Y0010201D01*
X0375345Y0010346D01*
X0375285Y0010492D01*
X0375229Y0010640D01*
X0375176Y0010789D01*
X0375127Y0010940D01*
X0375082Y0011092D01*
X0375041Y0011245D01*
X0375003Y0011398D01*
X0374970Y0011553D01*
X0374940Y0011709D01*
X0374914Y0011865D01*
X0374893Y0012022D01*
X0374875Y0012179D01*
X0374861Y0012337D01*
X0374851Y0012495D01*
X0374845Y0012653D01*
X0374843Y0012811D01*
X0381142Y0001000D02*
X0381427Y0001003D01*
X0381713Y0001014D01*
X0381998Y0001031D01*
X0382282Y0001055D01*
X0382566Y0001086D01*
X0382849Y0001124D01*
X0383130Y0001169D01*
X0383411Y0001220D01*
X0383691Y0001278D01*
X0383969Y0001343D01*
X0384245Y0001415D01*
X0384519Y0001493D01*
X0384792Y0001578D01*
X0385062Y0001670D01*
X0385330Y0001768D01*
X0385596Y0001872D01*
X0385859Y0001983D01*
X0386119Y0002100D01*
X0386377Y0002223D01*
X0386631Y0002353D01*
X0386882Y0002489D01*
X0387130Y0002630D01*
X0387374Y0002778D01*
X0387615Y0002931D01*
X0387851Y0003091D01*
X0388084Y0003256D01*
X0388313Y0003426D01*
X0388538Y0003602D01*
X0388758Y0003784D01*
X0388974Y0003970D01*
X0389185Y0004162D01*
X0389392Y0004359D01*
X0389594Y0004561D01*
X0389791Y0004768D01*
X0389983Y0004979D01*
X0390169Y0005195D01*
X0390351Y0005415D01*
X0390527Y0005640D01*
X0390697Y0005869D01*
X0390862Y0006102D01*
X0391022Y0006338D01*
X0391175Y0006579D01*
X0391323Y0006823D01*
X0391464Y0007071D01*
X0391600Y0007322D01*
X0391730Y0007576D01*
X0391853Y0007834D01*
X0391970Y0008094D01*
X0392081Y0008357D01*
X0392185Y0008623D01*
X0392283Y0008891D01*
X0392375Y0009161D01*
X0392460Y0009434D01*
X0392538Y0009708D01*
X0392610Y0009984D01*
X0392675Y0010262D01*
X0392733Y0010542D01*
X0392784Y0010823D01*
X0392829Y0011104D01*
X0392867Y0011387D01*
X0392898Y0011671D01*
X0392922Y0011955D01*
X0392939Y0012240D01*
X0392950Y0012526D01*
X0392953Y0012811D01*
X0381142Y0001000D02*
X0026811Y0001000D01*
X0020512Y0012811D02*
X0020514Y0012969D01*
X0020520Y0013127D01*
X0020530Y0013285D01*
X0020544Y0013443D01*
X0020562Y0013600D01*
X0020583Y0013757D01*
X0020609Y0013913D01*
X0020639Y0014069D01*
X0020672Y0014224D01*
X0020710Y0014377D01*
X0020751Y0014530D01*
X0020796Y0014682D01*
X0020845Y0014833D01*
X0020898Y0014982D01*
X0020954Y0015130D01*
X0021014Y0015276D01*
X0021078Y0015421D01*
X0021146Y0015564D01*
X0021217Y0015706D01*
X0021291Y0015846D01*
X0021369Y0015983D01*
X0021451Y0016119D01*
X0021535Y0016253D01*
X0021624Y0016384D01*
X0021715Y0016513D01*
X0021810Y0016640D01*
X0021907Y0016765D01*
X0022008Y0016887D01*
X0022112Y0017006D01*
X0022219Y0017123D01*
X0022329Y0017237D01*
X0022442Y0017348D01*
X0022557Y0017457D01*
X0022675Y0017562D01*
X0022796Y0017664D01*
X0022919Y0017764D01*
X0023045Y0017860D01*
X0023173Y0017953D01*
X0023303Y0018043D01*
X0023436Y0018129D01*
X0023571Y0018213D01*
X0023707Y0018292D01*
X0023846Y0018369D01*
X0023987Y0018441D01*
X0024129Y0018511D01*
X0024273Y0018576D01*
X0024419Y0018638D01*
X0024566Y0018696D01*
X0024715Y0018751D01*
X0024865Y0018802D01*
X0025016Y0018849D01*
X0025168Y0018892D01*
X0025321Y0018931D01*
X0025476Y0018967D01*
X0025631Y0018998D01*
X0025787Y0019026D01*
X0025943Y0019050D01*
X0026100Y0019070D01*
X0026258Y0019086D01*
X0026415Y0019098D01*
X0026574Y0019106D01*
X0026732Y0019110D01*
X0026890Y0019110D01*
X0027048Y0019106D01*
X0027207Y0019098D01*
X0027364Y0019086D01*
X0027522Y0019070D01*
X0027679Y0019050D01*
X0027835Y0019026D01*
X0027991Y0018998D01*
X0028146Y0018967D01*
X0028301Y0018931D01*
X0028454Y0018892D01*
X0028606Y0018849D01*
X0028757Y0018802D01*
X0028907Y0018751D01*
X0029056Y0018696D01*
X0029203Y0018638D01*
X0029349Y0018576D01*
X0029493Y0018511D01*
X0029635Y0018441D01*
X0029776Y0018369D01*
X0029915Y0018292D01*
X0030051Y0018213D01*
X0030186Y0018129D01*
X0030319Y0018043D01*
X0030449Y0017953D01*
X0030577Y0017860D01*
X0030703Y0017764D01*
X0030826Y0017664D01*
X0030947Y0017562D01*
X0031065Y0017457D01*
X0031180Y0017348D01*
X0031293Y0017237D01*
X0031403Y0017123D01*
X0031510Y0017006D01*
X0031614Y0016887D01*
X0031715Y0016765D01*
X0031812Y0016640D01*
X0031907Y0016513D01*
X0031998Y0016384D01*
X0032087Y0016253D01*
X0032171Y0016119D01*
X0032253Y0015983D01*
X0032331Y0015846D01*
X0032405Y0015706D01*
X0032476Y0015564D01*
X0032544Y0015421D01*
X0032608Y0015276D01*
X0032668Y0015130D01*
X0032724Y0014982D01*
X0032777Y0014833D01*
X0032826Y0014682D01*
X0032871Y0014530D01*
X0032912Y0014377D01*
X0032950Y0014224D01*
X0032983Y0014069D01*
X0033013Y0013913D01*
X0033039Y0013757D01*
X0033060Y0013600D01*
X0033078Y0013443D01*
X0033092Y0013285D01*
X0033102Y0013127D01*
X0033108Y0012969D01*
X0033110Y0012811D01*
X0033108Y0012653D01*
X0033102Y0012495D01*
X0033092Y0012337D01*
X0033078Y0012179D01*
X0033060Y0012022D01*
X0033039Y0011865D01*
X0033013Y0011709D01*
X0032983Y0011553D01*
X0032950Y0011398D01*
X0032912Y0011245D01*
X0032871Y0011092D01*
X0032826Y0010940D01*
X0032777Y0010789D01*
X0032724Y0010640D01*
X0032668Y0010492D01*
X0032608Y0010346D01*
X0032544Y0010201D01*
X0032476Y0010058D01*
X0032405Y0009916D01*
X0032331Y0009776D01*
X0032253Y0009639D01*
X0032171Y0009503D01*
X0032087Y0009369D01*
X0031998Y0009238D01*
X0031907Y0009109D01*
X0031812Y0008982D01*
X0031715Y0008857D01*
X0031614Y0008735D01*
X0031510Y0008616D01*
X0031403Y0008499D01*
X0031293Y0008385D01*
X0031180Y0008274D01*
X0031065Y0008165D01*
X0030947Y0008060D01*
X0030826Y0007958D01*
X0030703Y0007858D01*
X0030577Y0007762D01*
X0030449Y0007669D01*
X0030319Y0007579D01*
X0030186Y0007493D01*
X0030051Y0007409D01*
X0029915Y0007330D01*
X0029776Y0007253D01*
X0029635Y0007181D01*
X0029493Y0007111D01*
X0029349Y0007046D01*
X0029203Y0006984D01*
X0029056Y0006926D01*
X0028907Y0006871D01*
X0028757Y0006820D01*
X0028606Y0006773D01*
X0028454Y0006730D01*
X0028301Y0006691D01*
X0028146Y0006655D01*
X0027991Y0006624D01*
X0027835Y0006596D01*
X0027679Y0006572D01*
X0027522Y0006552D01*
X0027364Y0006536D01*
X0027207Y0006524D01*
X0027048Y0006516D01*
X0026890Y0006512D01*
X0026732Y0006512D01*
X0026574Y0006516D01*
X0026415Y0006524D01*
X0026258Y0006536D01*
X0026100Y0006552D01*
X0025943Y0006572D01*
X0025787Y0006596D01*
X0025631Y0006624D01*
X0025476Y0006655D01*
X0025321Y0006691D01*
X0025168Y0006730D01*
X0025016Y0006773D01*
X0024865Y0006820D01*
X0024715Y0006871D01*
X0024566Y0006926D01*
X0024419Y0006984D01*
X0024273Y0007046D01*
X0024129Y0007111D01*
X0023987Y0007181D01*
X0023846Y0007253D01*
X0023707Y0007330D01*
X0023571Y0007409D01*
X0023436Y0007493D01*
X0023303Y0007579D01*
X0023173Y0007669D01*
X0023045Y0007762D01*
X0022919Y0007858D01*
X0022796Y0007958D01*
X0022675Y0008060D01*
X0022557Y0008165D01*
X0022442Y0008274D01*
X0022329Y0008385D01*
X0022219Y0008499D01*
X0022112Y0008616D01*
X0022008Y0008735D01*
X0021907Y0008857D01*
X0021810Y0008982D01*
X0021715Y0009109D01*
X0021624Y0009238D01*
X0021535Y0009369D01*
X0021451Y0009503D01*
X0021369Y0009639D01*
X0021291Y0009776D01*
X0021217Y0009916D01*
X0021146Y0010058D01*
X0021078Y0010201D01*
X0021014Y0010346D01*
X0020954Y0010492D01*
X0020898Y0010640D01*
X0020845Y0010789D01*
X0020796Y0010940D01*
X0020751Y0011092D01*
X0020710Y0011245D01*
X0020672Y0011398D01*
X0020639Y0011553D01*
X0020609Y0011709D01*
X0020583Y0011865D01*
X0020562Y0012022D01*
X0020544Y0012179D01*
X0020530Y0012337D01*
X0020520Y0012495D01*
X0020514Y0012653D01*
X0020512Y0012811D01*
X0015000Y0012811D02*
X0015003Y0012526D01*
X0015014Y0012240D01*
X0015031Y0011955D01*
X0015055Y0011671D01*
X0015086Y0011387D01*
X0015124Y0011104D01*
X0015169Y0010823D01*
X0015220Y0010542D01*
X0015278Y0010262D01*
X0015343Y0009984D01*
X0015415Y0009708D01*
X0015493Y0009434D01*
X0015578Y0009161D01*
X0015670Y0008891D01*
X0015768Y0008623D01*
X0015872Y0008357D01*
X0015983Y0008094D01*
X0016100Y0007834D01*
X0016223Y0007576D01*
X0016353Y0007322D01*
X0016489Y0007071D01*
X0016630Y0006823D01*
X0016778Y0006579D01*
X0016931Y0006338D01*
X0017091Y0006102D01*
X0017256Y0005869D01*
X0017426Y0005640D01*
X0017602Y0005415D01*
X0017784Y0005195D01*
X0017970Y0004979D01*
X0018162Y0004768D01*
X0018359Y0004561D01*
X0018561Y0004359D01*
X0018768Y0004162D01*
X0018979Y0003970D01*
X0019195Y0003784D01*
X0019415Y0003602D01*
X0019640Y0003426D01*
X0019869Y0003256D01*
X0020102Y0003091D01*
X0020338Y0002931D01*
X0020579Y0002778D01*
X0020823Y0002630D01*
X0021071Y0002489D01*
X0021322Y0002353D01*
X0021576Y0002223D01*
X0021834Y0002100D01*
X0022094Y0001983D01*
X0022357Y0001872D01*
X0022623Y0001768D01*
X0022891Y0001670D01*
X0023161Y0001578D01*
X0023434Y0001493D01*
X0023708Y0001415D01*
X0023984Y0001343D01*
X0024262Y0001278D01*
X0024542Y0001220D01*
X0024823Y0001169D01*
X0025104Y0001124D01*
X0025387Y0001086D01*
X0025671Y0001055D01*
X0025955Y0001031D01*
X0026240Y0001014D01*
X0026526Y0001003D01*
X0026811Y0001000D01*
D11*
X0071417Y0077102D02*
X0071417Y0146000D01*
X0160000Y0146000D01*
X0160000Y0077102D01*
X0071417Y0077102D01*
X0104882Y0110567D02*
X0108819Y0106630D01*
X0104882Y0110567D02*
X0108819Y0114504D01*
X0104882Y0110567D02*
X0130472Y0110567D01*
X0163583Y0176000D02*
X0075000Y0176000D01*
X0075000Y0244898D01*
X0163583Y0244898D01*
X0163583Y0176000D01*
X0130118Y0211433D02*
X0126181Y0207496D01*
X0130118Y0211433D02*
X0126181Y0215370D01*
X0130118Y0211433D02*
X0104528Y0211433D01*
X0115672Y0278350D02*
X0116306Y0278350D01*
X0115672Y0278350D02*
X0115633Y0278352D01*
X0115594Y0278357D01*
X0115557Y0278366D01*
X0115520Y0278378D01*
X0115484Y0278394D01*
X0115450Y0278413D01*
X0115418Y0278435D01*
X0115388Y0278460D01*
X0115360Y0278488D01*
X0115335Y0278518D01*
X0115313Y0278550D01*
X0115294Y0278584D01*
X0115278Y0278620D01*
X0115266Y0278657D01*
X0115257Y0278694D01*
X0115252Y0278733D01*
X0115250Y0278772D01*
X0115250Y0278983D01*
X0115252Y0279022D01*
X0115257Y0279061D01*
X0115266Y0279098D01*
X0115278Y0279135D01*
X0115294Y0279171D01*
X0115313Y0279205D01*
X0115335Y0279237D01*
X0115360Y0279267D01*
X0115388Y0279295D01*
X0115418Y0279320D01*
X0115450Y0279342D01*
X0115484Y0279361D01*
X0115520Y0279377D01*
X0115557Y0279389D01*
X0115594Y0279398D01*
X0115633Y0279403D01*
X0115672Y0279405D01*
X0115672Y0279406D02*
X0116306Y0279406D01*
X0116306Y0280250D01*
X0115250Y0280250D01*
X0117466Y0280250D02*
X0117466Y0278772D01*
X0117468Y0278733D01*
X0117473Y0278694D01*
X0117482Y0278657D01*
X0117494Y0278620D01*
X0117510Y0278584D01*
X0117529Y0278550D01*
X0117551Y0278518D01*
X0117576Y0278488D01*
X0117604Y0278460D01*
X0117634Y0278435D01*
X0117666Y0278413D01*
X0117700Y0278394D01*
X0117736Y0278378D01*
X0117773Y0278366D01*
X0117810Y0278357D01*
X0117849Y0278352D01*
X0117888Y0278350D01*
X0118099Y0278350D01*
X0110650Y0299405D02*
X0108750Y0299405D01*
X0109594Y0299405D02*
X0109594Y0299933D01*
X0109594Y0300038D02*
X0108750Y0300460D01*
X0109172Y0301540D02*
X0109172Y0302595D01*
X0109594Y0302279D02*
X0108750Y0302279D01*
X0109172Y0301540D02*
X0110650Y0301962D01*
X0110650Y0299933D02*
X0110650Y0299405D01*
X0110650Y0299933D02*
X0110648Y0299978D01*
X0110642Y0300022D01*
X0110633Y0300066D01*
X0110620Y0300109D01*
X0110603Y0300150D01*
X0110583Y0300191D01*
X0110559Y0300229D01*
X0110533Y0300265D01*
X0110503Y0300298D01*
X0110471Y0300329D01*
X0110436Y0300358D01*
X0110399Y0300383D01*
X0110360Y0300404D01*
X0110319Y0300423D01*
X0110277Y0300438D01*
X0110233Y0300449D01*
X0110189Y0300457D01*
X0110144Y0300461D01*
X0110100Y0300461D01*
X0110055Y0300457D01*
X0110011Y0300449D01*
X0109967Y0300438D01*
X0109925Y0300423D01*
X0109884Y0300404D01*
X0109845Y0300383D01*
X0109808Y0300358D01*
X0109773Y0300329D01*
X0109741Y0300298D01*
X0109711Y0300265D01*
X0109685Y0300229D01*
X0109661Y0300191D01*
X0109641Y0300150D01*
X0109624Y0300109D01*
X0109611Y0300066D01*
X0109602Y0300022D01*
X0109596Y0299978D01*
X0109594Y0299933D01*
X0100650Y0299933D02*
X0100650Y0299405D01*
X0098750Y0299405D01*
X0099594Y0299405D02*
X0099594Y0299933D01*
X0099594Y0300038D02*
X0098750Y0300460D01*
X0098750Y0301540D02*
X0098750Y0302067D01*
X0098752Y0302112D01*
X0098758Y0302156D01*
X0098767Y0302200D01*
X0098780Y0302243D01*
X0098797Y0302284D01*
X0098817Y0302325D01*
X0098841Y0302363D01*
X0098867Y0302399D01*
X0098897Y0302432D01*
X0098929Y0302463D01*
X0098964Y0302492D01*
X0099001Y0302517D01*
X0099040Y0302538D01*
X0099081Y0302557D01*
X0099123Y0302572D01*
X0099167Y0302583D01*
X0099211Y0302591D01*
X0099256Y0302595D01*
X0099300Y0302595D01*
X0099345Y0302591D01*
X0099389Y0302583D01*
X0099433Y0302572D01*
X0099475Y0302557D01*
X0099516Y0302538D01*
X0099555Y0302517D01*
X0099592Y0302492D01*
X0099627Y0302463D01*
X0099659Y0302432D01*
X0099689Y0302399D01*
X0099715Y0302363D01*
X0099739Y0302325D01*
X0099759Y0302284D01*
X0099776Y0302243D01*
X0099789Y0302200D01*
X0099798Y0302156D01*
X0099804Y0302112D01*
X0099806Y0302067D01*
X0099806Y0302173D02*
X0099806Y0301751D01*
X0099806Y0302173D02*
X0099808Y0302213D01*
X0099814Y0302253D01*
X0099823Y0302292D01*
X0099836Y0302330D01*
X0099853Y0302366D01*
X0099873Y0302401D01*
X0099896Y0302434D01*
X0099923Y0302464D01*
X0099952Y0302492D01*
X0099983Y0302517D01*
X0100017Y0302538D01*
X0100053Y0302557D01*
X0100090Y0302572D01*
X0100129Y0302583D01*
X0100168Y0302591D01*
X0100208Y0302595D01*
X0100248Y0302595D01*
X0100288Y0302591D01*
X0100327Y0302583D01*
X0100366Y0302572D01*
X0100403Y0302557D01*
X0100439Y0302538D01*
X0100473Y0302517D01*
X0100504Y0302492D01*
X0100533Y0302464D01*
X0100560Y0302434D01*
X0100583Y0302401D01*
X0100603Y0302366D01*
X0100620Y0302330D01*
X0100633Y0302292D01*
X0100642Y0302253D01*
X0100648Y0302213D01*
X0100650Y0302173D01*
X0100650Y0301540D01*
X0100650Y0299933D02*
X0100648Y0299978D01*
X0100642Y0300022D01*
X0100633Y0300066D01*
X0100620Y0300109D01*
X0100603Y0300150D01*
X0100583Y0300191D01*
X0100559Y0300229D01*
X0100533Y0300265D01*
X0100503Y0300298D01*
X0100471Y0300329D01*
X0100436Y0300358D01*
X0100399Y0300383D01*
X0100360Y0300404D01*
X0100319Y0300423D01*
X0100277Y0300438D01*
X0100233Y0300449D01*
X0100189Y0300457D01*
X0100144Y0300461D01*
X0100100Y0300461D01*
X0100055Y0300457D01*
X0100011Y0300449D01*
X0099967Y0300438D01*
X0099925Y0300423D01*
X0099884Y0300404D01*
X0099845Y0300383D01*
X0099808Y0300358D01*
X0099773Y0300329D01*
X0099741Y0300298D01*
X0099711Y0300265D01*
X0099685Y0300229D01*
X0099661Y0300191D01*
X0099641Y0300150D01*
X0099624Y0300109D01*
X0099611Y0300066D01*
X0099602Y0300022D01*
X0099596Y0299978D01*
X0099594Y0299933D01*
X0090650Y0299933D02*
X0090650Y0299405D01*
X0088750Y0299405D01*
X0089594Y0299405D02*
X0089594Y0299933D01*
X0089594Y0300038D02*
X0088750Y0300460D01*
X0088750Y0301540D02*
X0088750Y0302595D01*
X0088750Y0301540D02*
X0089806Y0302437D01*
X0090650Y0302120D02*
X0090648Y0302072D01*
X0090642Y0302025D01*
X0090633Y0301977D01*
X0090620Y0301931D01*
X0090603Y0301886D01*
X0090583Y0301843D01*
X0090560Y0301801D01*
X0090533Y0301761D01*
X0090504Y0301724D01*
X0090471Y0301688D01*
X0090436Y0301656D01*
X0090398Y0301626D01*
X0090358Y0301600D01*
X0090316Y0301576D01*
X0090273Y0301556D01*
X0090228Y0301540D01*
X0089806Y0302437D02*
X0089835Y0302465D01*
X0089867Y0302492D01*
X0089901Y0302515D01*
X0089937Y0302536D01*
X0089974Y0302554D01*
X0090013Y0302568D01*
X0090052Y0302580D01*
X0090093Y0302588D01*
X0090134Y0302593D01*
X0090175Y0302595D01*
X0090216Y0302593D01*
X0090257Y0302588D01*
X0090298Y0302579D01*
X0090337Y0302566D01*
X0090376Y0302550D01*
X0090412Y0302531D01*
X0090447Y0302509D01*
X0090480Y0302484D01*
X0090511Y0302456D01*
X0090539Y0302425D01*
X0090564Y0302392D01*
X0090586Y0302358D01*
X0090605Y0302321D01*
X0090621Y0302282D01*
X0090634Y0302243D01*
X0090643Y0302202D01*
X0090648Y0302161D01*
X0090650Y0302120D01*
X0090650Y0299933D02*
X0090648Y0299978D01*
X0090642Y0300022D01*
X0090633Y0300066D01*
X0090620Y0300109D01*
X0090603Y0300150D01*
X0090583Y0300191D01*
X0090559Y0300229D01*
X0090533Y0300265D01*
X0090503Y0300298D01*
X0090471Y0300329D01*
X0090436Y0300358D01*
X0090399Y0300383D01*
X0090360Y0300404D01*
X0090319Y0300423D01*
X0090277Y0300438D01*
X0090233Y0300449D01*
X0090189Y0300457D01*
X0090144Y0300461D01*
X0090100Y0300461D01*
X0090055Y0300457D01*
X0090011Y0300449D01*
X0089967Y0300438D01*
X0089925Y0300423D01*
X0089884Y0300404D01*
X0089845Y0300383D01*
X0089808Y0300358D01*
X0089773Y0300329D01*
X0089741Y0300298D01*
X0089711Y0300265D01*
X0089685Y0300229D01*
X0089661Y0300191D01*
X0089641Y0300150D01*
X0089624Y0300109D01*
X0089611Y0300066D01*
X0089602Y0300022D01*
X0089596Y0299978D01*
X0089594Y0299933D01*
X0080650Y0299933D02*
X0080650Y0299405D01*
X0078750Y0299405D01*
X0079594Y0299405D02*
X0079594Y0299933D01*
X0079594Y0300038D02*
X0078750Y0300460D01*
X0078750Y0301540D02*
X0078750Y0302595D01*
X0078750Y0302067D02*
X0080650Y0302067D01*
X0080228Y0301540D01*
X0080650Y0299933D02*
X0080648Y0299978D01*
X0080642Y0300022D01*
X0080633Y0300066D01*
X0080620Y0300109D01*
X0080603Y0300150D01*
X0080583Y0300191D01*
X0080559Y0300229D01*
X0080533Y0300265D01*
X0080503Y0300298D01*
X0080471Y0300329D01*
X0080436Y0300358D01*
X0080399Y0300383D01*
X0080360Y0300404D01*
X0080319Y0300423D01*
X0080277Y0300438D01*
X0080233Y0300449D01*
X0080189Y0300457D01*
X0080144Y0300461D01*
X0080100Y0300461D01*
X0080055Y0300457D01*
X0080011Y0300449D01*
X0079967Y0300438D01*
X0079925Y0300423D01*
X0079884Y0300404D01*
X0079845Y0300383D01*
X0079808Y0300358D01*
X0079773Y0300329D01*
X0079741Y0300298D01*
X0079711Y0300265D01*
X0079685Y0300229D01*
X0079661Y0300191D01*
X0079641Y0300150D01*
X0079624Y0300109D01*
X0079611Y0300066D01*
X0079602Y0300022D01*
X0079596Y0299978D01*
X0079594Y0299933D01*
X0279278Y0115272D02*
X0279383Y0115272D01*
X0279422Y0115270D01*
X0279461Y0115265D01*
X0279498Y0115256D01*
X0279535Y0115244D01*
X0279571Y0115228D01*
X0279605Y0115209D01*
X0279637Y0115187D01*
X0279667Y0115162D01*
X0279695Y0115134D01*
X0279720Y0115104D01*
X0279742Y0115072D01*
X0279761Y0115038D01*
X0279777Y0115002D01*
X0279789Y0114965D01*
X0279798Y0114928D01*
X0279803Y0114889D01*
X0279805Y0114850D01*
X0279806Y0114850D02*
X0279806Y0114217D01*
X0279278Y0114217D01*
X0279233Y0114219D01*
X0279189Y0114225D01*
X0279145Y0114234D01*
X0279102Y0114247D01*
X0279061Y0114264D01*
X0279020Y0114284D01*
X0278982Y0114308D01*
X0278946Y0114334D01*
X0278913Y0114364D01*
X0278882Y0114396D01*
X0278853Y0114431D01*
X0278828Y0114468D01*
X0278807Y0114507D01*
X0278788Y0114548D01*
X0278773Y0114590D01*
X0278762Y0114634D01*
X0278754Y0114678D01*
X0278750Y0114723D01*
X0278750Y0114767D01*
X0278754Y0114812D01*
X0278762Y0114856D01*
X0278773Y0114900D01*
X0278788Y0114942D01*
X0278807Y0114983D01*
X0278828Y0115022D01*
X0278853Y0115059D01*
X0278882Y0115094D01*
X0278913Y0115126D01*
X0278946Y0115156D01*
X0278982Y0115182D01*
X0279020Y0115206D01*
X0279061Y0115226D01*
X0279102Y0115243D01*
X0279145Y0115256D01*
X0279189Y0115265D01*
X0279233Y0115271D01*
X0279278Y0115273D01*
X0279806Y0114217D02*
X0279864Y0114219D01*
X0279921Y0114225D01*
X0279978Y0114235D01*
X0280034Y0114248D01*
X0280089Y0114266D01*
X0280142Y0114287D01*
X0280194Y0114312D01*
X0280245Y0114340D01*
X0280293Y0114371D01*
X0280339Y0114406D01*
X0280382Y0114444D01*
X0280423Y0114485D01*
X0280461Y0114528D01*
X0280496Y0114574D01*
X0280527Y0114622D01*
X0280555Y0114673D01*
X0280580Y0114725D01*
X0280601Y0114778D01*
X0280619Y0114833D01*
X0280632Y0114889D01*
X0280642Y0114946D01*
X0280648Y0115003D01*
X0280650Y0115061D01*
X0280650Y0112610D02*
X0280650Y0112082D01*
X0278750Y0112082D01*
X0279594Y0112082D02*
X0279594Y0112610D01*
X0279594Y0112715D02*
X0278750Y0113137D01*
X0279594Y0112610D02*
X0279596Y0112655D01*
X0279602Y0112699D01*
X0279611Y0112743D01*
X0279624Y0112786D01*
X0279641Y0112827D01*
X0279661Y0112868D01*
X0279685Y0112906D01*
X0279711Y0112942D01*
X0279741Y0112975D01*
X0279773Y0113006D01*
X0279808Y0113035D01*
X0279845Y0113060D01*
X0279884Y0113081D01*
X0279925Y0113100D01*
X0279967Y0113115D01*
X0280011Y0113126D01*
X0280055Y0113134D01*
X0280100Y0113138D01*
X0280144Y0113138D01*
X0280189Y0113134D01*
X0280233Y0113126D01*
X0280277Y0113115D01*
X0280319Y0113100D01*
X0280360Y0113081D01*
X0280399Y0113060D01*
X0280436Y0113035D01*
X0280471Y0113006D01*
X0280503Y0112975D01*
X0280533Y0112942D01*
X0280559Y0112906D01*
X0280583Y0112868D01*
X0280603Y0112827D01*
X0280620Y0112786D01*
X0280633Y0112743D01*
X0280642Y0112699D01*
X0280648Y0112655D01*
X0280650Y0112610D01*
X0333750Y0113137D02*
X0334594Y0112715D01*
X0334594Y0112610D02*
X0334594Y0112082D01*
X0334594Y0112610D02*
X0334596Y0112655D01*
X0334602Y0112699D01*
X0334611Y0112743D01*
X0334624Y0112786D01*
X0334641Y0112827D01*
X0334661Y0112868D01*
X0334685Y0112906D01*
X0334711Y0112942D01*
X0334741Y0112975D01*
X0334773Y0113006D01*
X0334808Y0113035D01*
X0334845Y0113060D01*
X0334884Y0113081D01*
X0334925Y0113100D01*
X0334967Y0113115D01*
X0335011Y0113126D01*
X0335055Y0113134D01*
X0335100Y0113138D01*
X0335144Y0113138D01*
X0335189Y0113134D01*
X0335233Y0113126D01*
X0335277Y0113115D01*
X0335319Y0113100D01*
X0335360Y0113081D01*
X0335399Y0113060D01*
X0335436Y0113035D01*
X0335471Y0113006D01*
X0335503Y0112975D01*
X0335533Y0112942D01*
X0335559Y0112906D01*
X0335583Y0112868D01*
X0335603Y0112827D01*
X0335620Y0112786D01*
X0335633Y0112743D01*
X0335642Y0112699D01*
X0335648Y0112655D01*
X0335650Y0112610D01*
X0335650Y0112082D01*
X0333750Y0112082D01*
X0333750Y0114217D02*
X0333750Y0114850D01*
X0333752Y0114889D01*
X0333757Y0114928D01*
X0333766Y0114965D01*
X0333778Y0115002D01*
X0333794Y0115038D01*
X0333813Y0115072D01*
X0333835Y0115104D01*
X0333860Y0115134D01*
X0333888Y0115162D01*
X0333918Y0115187D01*
X0333950Y0115209D01*
X0333984Y0115228D01*
X0334020Y0115244D01*
X0334057Y0115256D01*
X0334094Y0115265D01*
X0334133Y0115270D01*
X0334172Y0115272D01*
X0334383Y0115272D01*
X0334422Y0115270D01*
X0334461Y0115265D01*
X0334498Y0115256D01*
X0334535Y0115244D01*
X0334571Y0115228D01*
X0334605Y0115209D01*
X0334637Y0115187D01*
X0334667Y0115162D01*
X0334695Y0115134D01*
X0334720Y0115104D01*
X0334742Y0115072D01*
X0334761Y0115038D01*
X0334777Y0115002D01*
X0334789Y0114965D01*
X0334798Y0114928D01*
X0334803Y0114889D01*
X0334805Y0114850D01*
X0334806Y0114850D02*
X0334806Y0114217D01*
X0335650Y0114217D01*
X0335650Y0115272D01*
D12*
X0241500Y0113100D02*
X0241500Y0138900D01*
X0228500Y0138900D01*
X0228500Y0113100D01*
X0241500Y0113100D01*
D13*
X0253217Y0122800D02*
X0254300Y0122800D01*
X0254300Y0123633D02*
X0253217Y0123633D01*
X0253217Y0123634D02*
X0253177Y0123632D01*
X0253138Y0123626D01*
X0253100Y0123617D01*
X0253062Y0123604D01*
X0253026Y0123588D01*
X0252992Y0123568D01*
X0252959Y0123545D01*
X0252929Y0123519D01*
X0252902Y0123490D01*
X0252877Y0123459D01*
X0252856Y0123426D01*
X0252838Y0123390D01*
X0252823Y0123353D01*
X0252812Y0123315D01*
X0252804Y0123276D01*
X0252800Y0123237D01*
X0252800Y0123197D01*
X0252804Y0123158D01*
X0252812Y0123119D01*
X0252823Y0123081D01*
X0252838Y0123044D01*
X0252856Y0123009D01*
X0252877Y0122975D01*
X0252902Y0122944D01*
X0252929Y0122915D01*
X0252959Y0122889D01*
X0252992Y0122866D01*
X0253026Y0122846D01*
X0253062Y0122830D01*
X0253100Y0122817D01*
X0253138Y0122808D01*
X0253177Y0122802D01*
X0253217Y0122800D01*
X0253675Y0124400D02*
X0253550Y0124609D01*
X0253425Y0124817D01*
X0254050Y0124942D02*
X0254073Y0124900D01*
X0254093Y0124857D01*
X0254110Y0124812D01*
X0254123Y0124767D01*
X0254133Y0124720D01*
X0254140Y0124673D01*
X0254144Y0124626D01*
X0254144Y0124578D01*
X0254140Y0124530D01*
X0254133Y0124483D01*
X0254300Y0124609D02*
X0252800Y0124609D01*
X0252967Y0124734D02*
X0252974Y0124763D01*
X0252985Y0124791D01*
X0252999Y0124818D01*
X0253016Y0124843D01*
X0253036Y0124865D01*
X0253059Y0124885D01*
X0253083Y0124902D01*
X0253110Y0124916D01*
X0253138Y0124927D01*
X0253167Y0124934D01*
X0253197Y0124938D01*
X0253227Y0124938D01*
X0253257Y0124934D01*
X0253287Y0124927D01*
X0253315Y0124916D01*
X0253341Y0124902D01*
X0253366Y0124885D01*
X0253389Y0124865D01*
X0253408Y0124842D01*
X0253426Y0124817D01*
X0252967Y0124734D02*
X0252960Y0124687D01*
X0252956Y0124639D01*
X0252956Y0124591D01*
X0252960Y0124544D01*
X0252967Y0124497D01*
X0252977Y0124450D01*
X0252990Y0124405D01*
X0253007Y0124360D01*
X0253027Y0124317D01*
X0253050Y0124275D01*
X0253674Y0124400D02*
X0253692Y0124375D01*
X0253711Y0124352D01*
X0253734Y0124332D01*
X0253759Y0124315D01*
X0253785Y0124301D01*
X0253813Y0124290D01*
X0253843Y0124283D01*
X0253873Y0124279D01*
X0253903Y0124279D01*
X0253933Y0124283D01*
X0253962Y0124290D01*
X0253990Y0124301D01*
X0254017Y0124315D01*
X0254041Y0124332D01*
X0254064Y0124352D01*
X0254084Y0124374D01*
X0254101Y0124399D01*
X0254115Y0124426D01*
X0254126Y0124454D01*
X0254133Y0124483D01*
X0254300Y0125869D02*
X0253133Y0125536D01*
X0253133Y0126369D01*
X0252800Y0126119D02*
X0253467Y0126119D01*
D14*
X0235000Y0070921D02*
X0234961Y0070921D01*
X0066496Y0070921D01*
X0066496Y0011000D01*
X0235000Y0011000D01*
X0234961Y0011000D02*
X0234961Y0070921D01*
D15*
X0179997Y0042375D02*
X0179997Y0039053D01*
X0179995Y0038983D01*
X0179989Y0038912D01*
X0179980Y0038843D01*
X0179966Y0038774D01*
X0179949Y0038705D01*
X0179928Y0038638D01*
X0179903Y0038572D01*
X0179875Y0038508D01*
X0179843Y0038445D01*
X0179808Y0038384D01*
X0179769Y0038325D01*
X0179728Y0038268D01*
X0179683Y0038214D01*
X0179635Y0038162D01*
X0179585Y0038113D01*
X0179531Y0038066D01*
X0179476Y0038023D01*
X0179418Y0037983D01*
X0179358Y0037946D01*
X0179296Y0037913D01*
X0179232Y0037883D01*
X0179167Y0037856D01*
X0179101Y0037833D01*
X0179033Y0037814D01*
X0178964Y0037799D01*
X0178895Y0037787D01*
X0178825Y0037779D01*
X0178754Y0037775D01*
X0178684Y0037775D01*
X0178613Y0037779D01*
X0178543Y0037787D01*
X0178474Y0037799D01*
X0178405Y0037814D01*
X0178337Y0037833D01*
X0178271Y0037856D01*
X0178206Y0037883D01*
X0178142Y0037913D01*
X0178080Y0037946D01*
X0178020Y0037983D01*
X0177962Y0038023D01*
X0177907Y0038066D01*
X0177853Y0038113D01*
X0177803Y0038162D01*
X0177755Y0038214D01*
X0177710Y0038268D01*
X0177669Y0038325D01*
X0177630Y0038384D01*
X0177595Y0038445D01*
X0177563Y0038508D01*
X0177535Y0038572D01*
X0177510Y0038638D01*
X0177489Y0038705D01*
X0177472Y0038774D01*
X0177458Y0038843D01*
X0177449Y0038912D01*
X0177443Y0038983D01*
X0177441Y0039053D01*
X0177441Y0042375D01*
X0174069Y0042375D02*
X0172536Y0037775D01*
X0172919Y0038925D02*
X0175219Y0038925D01*
X0175602Y0037775D02*
X0174069Y0042375D01*
X0170668Y0042375D02*
X0169390Y0042375D01*
X0170668Y0042375D02*
X0170668Y0037775D01*
X0170668Y0039819D02*
X0169390Y0039819D01*
X0169135Y0039819D02*
X0168112Y0037775D01*
X0165219Y0037775D02*
X0165219Y0042375D01*
X0166497Y0042375D02*
X0163941Y0042375D01*
X0159852Y0039564D02*
X0156786Y0038286D01*
X0154752Y0039564D02*
X0151686Y0039564D01*
X0149652Y0040841D02*
X0146586Y0039564D01*
X0149652Y0038286D01*
X0142018Y0037775D02*
X0142018Y0042375D01*
X0140740Y0042375D01*
X0140670Y0042373D01*
X0140599Y0042367D01*
X0140530Y0042358D01*
X0140461Y0042344D01*
X0140392Y0042327D01*
X0140325Y0042306D01*
X0140259Y0042281D01*
X0140195Y0042253D01*
X0140132Y0042221D01*
X0140071Y0042186D01*
X0140012Y0042147D01*
X0139955Y0042106D01*
X0139901Y0042061D01*
X0139849Y0042013D01*
X0139800Y0041963D01*
X0139753Y0041909D01*
X0139710Y0041854D01*
X0139670Y0041796D01*
X0139633Y0041736D01*
X0139600Y0041674D01*
X0139570Y0041610D01*
X0139543Y0041545D01*
X0139520Y0041479D01*
X0139501Y0041411D01*
X0139486Y0041342D01*
X0139474Y0041273D01*
X0139466Y0041203D01*
X0139462Y0041132D01*
X0139462Y0041062D01*
X0139466Y0040991D01*
X0139474Y0040921D01*
X0139486Y0040852D01*
X0139501Y0040783D01*
X0139520Y0040715D01*
X0139543Y0040649D01*
X0139570Y0040584D01*
X0139600Y0040520D01*
X0139633Y0040458D01*
X0139670Y0040398D01*
X0139710Y0040340D01*
X0139753Y0040285D01*
X0139800Y0040231D01*
X0139849Y0040181D01*
X0139901Y0040133D01*
X0139955Y0040088D01*
X0140012Y0040047D01*
X0140071Y0040008D01*
X0140132Y0039973D01*
X0140195Y0039941D01*
X0140259Y0039913D01*
X0140325Y0039888D01*
X0140392Y0039867D01*
X0140461Y0039850D01*
X0140530Y0039836D01*
X0140599Y0039827D01*
X0140670Y0039821D01*
X0140740Y0039819D01*
X0142018Y0039819D01*
X0140485Y0039819D02*
X0139462Y0037775D01*
X0135653Y0039691D02*
X0135599Y0039657D01*
X0135548Y0039620D01*
X0135499Y0039580D01*
X0135452Y0039537D01*
X0135409Y0039491D01*
X0135368Y0039443D01*
X0135330Y0039392D01*
X0135295Y0039339D01*
X0135263Y0039284D01*
X0135235Y0039227D01*
X0135211Y0039169D01*
X0135190Y0039109D01*
X0135173Y0039048D01*
X0135159Y0038986D01*
X0135150Y0038923D01*
X0135144Y0038860D01*
X0135142Y0038797D01*
X0135144Y0038735D01*
X0135149Y0038674D01*
X0135159Y0038613D01*
X0135172Y0038552D01*
X0135188Y0038493D01*
X0135208Y0038435D01*
X0135232Y0038378D01*
X0135259Y0038322D01*
X0135289Y0038268D01*
X0135323Y0038216D01*
X0135359Y0038167D01*
X0135399Y0038119D01*
X0135441Y0038074D01*
X0135486Y0038032D01*
X0135534Y0037992D01*
X0135583Y0037956D01*
X0135635Y0037922D01*
X0135689Y0037892D01*
X0135745Y0037865D01*
X0135802Y0037841D01*
X0135860Y0037821D01*
X0135919Y0037805D01*
X0135980Y0037792D01*
X0136041Y0037782D01*
X0136102Y0037777D01*
X0136164Y0037775D01*
X0135652Y0039691D02*
X0137058Y0040458D01*
X0136547Y0042375D02*
X0136465Y0042373D01*
X0136383Y0042368D01*
X0136301Y0042359D01*
X0136220Y0042347D01*
X0136139Y0042331D01*
X0136059Y0042312D01*
X0135980Y0042289D01*
X0135902Y0042263D01*
X0135825Y0042234D01*
X0135750Y0042201D01*
X0135676Y0042165D01*
X0135603Y0042127D01*
X0135532Y0042085D01*
X0135464Y0042040D01*
X0135397Y0041992D01*
X0137058Y0040459D02*
X0137112Y0040493D01*
X0137163Y0040530D01*
X0137212Y0040570D01*
X0137259Y0040613D01*
X0137302Y0040659D01*
X0137343Y0040707D01*
X0137381Y0040758D01*
X0137416Y0040811D01*
X0137448Y0040866D01*
X0137476Y0040923D01*
X0137500Y0040981D01*
X0137521Y0041041D01*
X0137538Y0041102D01*
X0137552Y0041164D01*
X0137561Y0041227D01*
X0137567Y0041290D01*
X0137569Y0041353D01*
X0137567Y0041415D01*
X0137562Y0041476D01*
X0137552Y0041537D01*
X0137539Y0041598D01*
X0137523Y0041657D01*
X0137503Y0041715D01*
X0137479Y0041772D01*
X0137452Y0041828D01*
X0137422Y0041882D01*
X0137388Y0041934D01*
X0137352Y0041983D01*
X0137312Y0042031D01*
X0137270Y0042076D01*
X0137225Y0042118D01*
X0137177Y0042158D01*
X0137128Y0042194D01*
X0137076Y0042228D01*
X0137022Y0042258D01*
X0136966Y0042285D01*
X0136909Y0042309D01*
X0136851Y0042329D01*
X0136792Y0042345D01*
X0136731Y0042358D01*
X0136670Y0042368D01*
X0136609Y0042373D01*
X0136547Y0042375D01*
X0137697Y0038414D02*
X0137633Y0038351D01*
X0137566Y0038292D01*
X0137496Y0038235D01*
X0137424Y0038181D01*
X0137350Y0038130D01*
X0137274Y0038082D01*
X0137197Y0038038D01*
X0137117Y0037997D01*
X0137036Y0037959D01*
X0136953Y0037924D01*
X0136869Y0037893D01*
X0136783Y0037866D01*
X0136697Y0037842D01*
X0136609Y0037821D01*
X0136521Y0037805D01*
X0136432Y0037792D01*
X0136343Y0037782D01*
X0136254Y0037777D01*
X0136164Y0037775D01*
X0133347Y0037775D02*
X0131814Y0037775D01*
X0131752Y0037777D01*
X0131691Y0037782D01*
X0131630Y0037792D01*
X0131569Y0037805D01*
X0131510Y0037821D01*
X0131452Y0037841D01*
X0131395Y0037865D01*
X0131339Y0037892D01*
X0131285Y0037922D01*
X0131233Y0037956D01*
X0131184Y0037992D01*
X0131136Y0038032D01*
X0131091Y0038074D01*
X0131049Y0038119D01*
X0131009Y0038167D01*
X0130973Y0038216D01*
X0130939Y0038268D01*
X0130909Y0038322D01*
X0130882Y0038378D01*
X0130858Y0038435D01*
X0130838Y0038493D01*
X0130822Y0038552D01*
X0130809Y0038613D01*
X0130799Y0038674D01*
X0130794Y0038735D01*
X0130792Y0038797D01*
X0130791Y0038797D02*
X0130791Y0039308D01*
X0130792Y0039308D02*
X0130794Y0039370D01*
X0130799Y0039431D01*
X0130809Y0039492D01*
X0130822Y0039553D01*
X0130838Y0039612D01*
X0130858Y0039670D01*
X0130882Y0039727D01*
X0130909Y0039783D01*
X0130939Y0039837D01*
X0130973Y0039889D01*
X0131009Y0039938D01*
X0131049Y0039986D01*
X0131091Y0040031D01*
X0131136Y0040073D01*
X0131184Y0040113D01*
X0131233Y0040149D01*
X0131285Y0040183D01*
X0131339Y0040213D01*
X0131395Y0040240D01*
X0131452Y0040264D01*
X0131510Y0040284D01*
X0131569Y0040300D01*
X0131630Y0040313D01*
X0131691Y0040323D01*
X0131752Y0040328D01*
X0131814Y0040330D01*
X0133347Y0040330D01*
X0133347Y0042375D01*
X0130791Y0042375D01*
X0128591Y0041353D02*
X0128589Y0041290D01*
X0128583Y0041227D01*
X0128574Y0041165D01*
X0128560Y0041104D01*
X0128543Y0041043D01*
X0128522Y0040984D01*
X0128497Y0040926D01*
X0128469Y0040869D01*
X0128438Y0040815D01*
X0128403Y0040763D01*
X0128365Y0040712D01*
X0128324Y0040664D01*
X0128280Y0040619D01*
X0128234Y0040577D01*
X0128185Y0040537D01*
X0128134Y0040501D01*
X0128080Y0040468D01*
X0128025Y0040438D01*
X0127967Y0040412D01*
X0127909Y0040389D01*
X0127849Y0040370D01*
X0127788Y0040355D01*
X0127726Y0040343D01*
X0127663Y0040335D01*
X0127600Y0040331D01*
X0127538Y0040331D01*
X0127475Y0040335D01*
X0127412Y0040343D01*
X0127350Y0040355D01*
X0127289Y0040370D01*
X0127229Y0040389D01*
X0127171Y0040412D01*
X0127113Y0040438D01*
X0127058Y0040468D01*
X0127004Y0040501D01*
X0126953Y0040537D01*
X0126904Y0040577D01*
X0126858Y0040619D01*
X0126814Y0040664D01*
X0126773Y0040712D01*
X0126735Y0040763D01*
X0126700Y0040815D01*
X0126669Y0040869D01*
X0126641Y0040926D01*
X0126616Y0040984D01*
X0126595Y0041043D01*
X0126578Y0041104D01*
X0126564Y0041165D01*
X0126555Y0041227D01*
X0126549Y0041290D01*
X0126547Y0041353D01*
X0126549Y0041416D01*
X0126555Y0041479D01*
X0126564Y0041541D01*
X0126578Y0041602D01*
X0126595Y0041663D01*
X0126616Y0041722D01*
X0126641Y0041780D01*
X0126669Y0041837D01*
X0126700Y0041891D01*
X0126735Y0041943D01*
X0126773Y0041994D01*
X0126814Y0042042D01*
X0126858Y0042087D01*
X0126904Y0042129D01*
X0126953Y0042169D01*
X0127004Y0042205D01*
X0127058Y0042238D01*
X0127113Y0042268D01*
X0127171Y0042294D01*
X0127229Y0042317D01*
X0127289Y0042336D01*
X0127350Y0042351D01*
X0127412Y0042363D01*
X0127475Y0042371D01*
X0127538Y0042375D01*
X0127600Y0042375D01*
X0127663Y0042371D01*
X0127726Y0042363D01*
X0127788Y0042351D01*
X0127849Y0042336D01*
X0127909Y0042317D01*
X0127967Y0042294D01*
X0128025Y0042268D01*
X0128080Y0042238D01*
X0128134Y0042205D01*
X0128185Y0042169D01*
X0128234Y0042129D01*
X0128280Y0042087D01*
X0128324Y0042042D01*
X0128365Y0041994D01*
X0128403Y0041943D01*
X0128438Y0041891D01*
X0128469Y0041837D01*
X0128497Y0041780D01*
X0128522Y0041722D01*
X0128543Y0041663D01*
X0128560Y0041602D01*
X0128574Y0041541D01*
X0128583Y0041479D01*
X0128589Y0041416D01*
X0128591Y0041353D01*
X0128847Y0039053D02*
X0128845Y0038983D01*
X0128839Y0038912D01*
X0128830Y0038843D01*
X0128816Y0038774D01*
X0128799Y0038705D01*
X0128778Y0038638D01*
X0128753Y0038572D01*
X0128725Y0038508D01*
X0128693Y0038445D01*
X0128658Y0038384D01*
X0128619Y0038325D01*
X0128578Y0038268D01*
X0128533Y0038214D01*
X0128485Y0038162D01*
X0128435Y0038113D01*
X0128381Y0038066D01*
X0128326Y0038023D01*
X0128268Y0037983D01*
X0128208Y0037946D01*
X0128146Y0037913D01*
X0128082Y0037883D01*
X0128017Y0037856D01*
X0127951Y0037833D01*
X0127883Y0037814D01*
X0127814Y0037799D01*
X0127745Y0037787D01*
X0127675Y0037779D01*
X0127604Y0037775D01*
X0127534Y0037775D01*
X0127463Y0037779D01*
X0127393Y0037787D01*
X0127324Y0037799D01*
X0127255Y0037814D01*
X0127187Y0037833D01*
X0127121Y0037856D01*
X0127056Y0037883D01*
X0126992Y0037913D01*
X0126930Y0037946D01*
X0126870Y0037983D01*
X0126812Y0038023D01*
X0126757Y0038066D01*
X0126703Y0038113D01*
X0126653Y0038162D01*
X0126605Y0038214D01*
X0126560Y0038268D01*
X0126519Y0038325D01*
X0126480Y0038384D01*
X0126445Y0038445D01*
X0126413Y0038508D01*
X0126385Y0038572D01*
X0126360Y0038638D01*
X0126339Y0038705D01*
X0126322Y0038774D01*
X0126308Y0038843D01*
X0126299Y0038912D01*
X0126293Y0038983D01*
X0126291Y0039053D01*
X0126293Y0039123D01*
X0126299Y0039194D01*
X0126308Y0039263D01*
X0126322Y0039332D01*
X0126339Y0039401D01*
X0126360Y0039468D01*
X0126385Y0039534D01*
X0126413Y0039598D01*
X0126445Y0039661D01*
X0126480Y0039722D01*
X0126519Y0039781D01*
X0126560Y0039838D01*
X0126605Y0039892D01*
X0126653Y0039944D01*
X0126703Y0039993D01*
X0126757Y0040040D01*
X0126812Y0040083D01*
X0126870Y0040123D01*
X0126930Y0040160D01*
X0126992Y0040193D01*
X0127056Y0040223D01*
X0127121Y0040250D01*
X0127187Y0040273D01*
X0127255Y0040292D01*
X0127324Y0040307D01*
X0127393Y0040319D01*
X0127463Y0040327D01*
X0127534Y0040331D01*
X0127604Y0040331D01*
X0127675Y0040327D01*
X0127745Y0040319D01*
X0127814Y0040307D01*
X0127883Y0040292D01*
X0127951Y0040273D01*
X0128017Y0040250D01*
X0128082Y0040223D01*
X0128146Y0040193D01*
X0128208Y0040160D01*
X0128268Y0040123D01*
X0128326Y0040083D01*
X0128381Y0040040D01*
X0128435Y0039993D01*
X0128485Y0039944D01*
X0128533Y0039892D01*
X0128578Y0039838D01*
X0128619Y0039781D01*
X0128658Y0039722D01*
X0128693Y0039661D01*
X0128725Y0039598D01*
X0128753Y0039534D01*
X0128778Y0039468D01*
X0128799Y0039401D01*
X0128816Y0039332D01*
X0128830Y0039263D01*
X0128839Y0039194D01*
X0128845Y0039123D01*
X0128847Y0039053D01*
X0124347Y0040330D02*
X0124347Y0042375D01*
X0121791Y0042375D01*
X0122814Y0040330D02*
X0124347Y0040330D01*
X0122814Y0040330D02*
X0122752Y0040328D01*
X0122691Y0040323D01*
X0122630Y0040313D01*
X0122569Y0040300D01*
X0122510Y0040284D01*
X0122452Y0040264D01*
X0122395Y0040240D01*
X0122339Y0040213D01*
X0122285Y0040183D01*
X0122233Y0040149D01*
X0122184Y0040113D01*
X0122136Y0040073D01*
X0122091Y0040031D01*
X0122049Y0039986D01*
X0122009Y0039938D01*
X0121973Y0039889D01*
X0121939Y0039837D01*
X0121909Y0039783D01*
X0121882Y0039727D01*
X0121858Y0039670D01*
X0121838Y0039612D01*
X0121822Y0039553D01*
X0121809Y0039492D01*
X0121799Y0039431D01*
X0121794Y0039370D01*
X0121792Y0039308D01*
X0121791Y0039308D02*
X0121791Y0038797D01*
X0121792Y0038797D02*
X0121794Y0038735D01*
X0121799Y0038674D01*
X0121809Y0038613D01*
X0121822Y0038552D01*
X0121838Y0038493D01*
X0121858Y0038435D01*
X0121882Y0038378D01*
X0121909Y0038322D01*
X0121939Y0038268D01*
X0121973Y0038216D01*
X0122009Y0038167D01*
X0122049Y0038119D01*
X0122091Y0038074D01*
X0122136Y0038032D01*
X0122184Y0037992D01*
X0122233Y0037956D01*
X0122285Y0037922D01*
X0122339Y0037892D01*
X0122395Y0037865D01*
X0122452Y0037841D01*
X0122510Y0037821D01*
X0122569Y0037805D01*
X0122630Y0037792D01*
X0122691Y0037782D01*
X0122752Y0037777D01*
X0122814Y0037775D01*
X0124347Y0037775D01*
X0156786Y0040841D02*
X0159852Y0039564D01*
X0169390Y0039819D02*
X0169320Y0039821D01*
X0169249Y0039827D01*
X0169180Y0039836D01*
X0169111Y0039850D01*
X0169042Y0039867D01*
X0168975Y0039888D01*
X0168909Y0039913D01*
X0168845Y0039941D01*
X0168782Y0039973D01*
X0168721Y0040008D01*
X0168662Y0040047D01*
X0168605Y0040088D01*
X0168551Y0040133D01*
X0168499Y0040181D01*
X0168450Y0040231D01*
X0168403Y0040285D01*
X0168360Y0040340D01*
X0168320Y0040398D01*
X0168283Y0040458D01*
X0168250Y0040520D01*
X0168220Y0040584D01*
X0168193Y0040649D01*
X0168170Y0040715D01*
X0168151Y0040783D01*
X0168136Y0040852D01*
X0168124Y0040921D01*
X0168116Y0040991D01*
X0168112Y0041062D01*
X0168112Y0041132D01*
X0168116Y0041203D01*
X0168124Y0041273D01*
X0168136Y0041342D01*
X0168151Y0041411D01*
X0168170Y0041479D01*
X0168193Y0041545D01*
X0168220Y0041610D01*
X0168250Y0041674D01*
X0168283Y0041736D01*
X0168320Y0041796D01*
X0168360Y0041854D01*
X0168403Y0041909D01*
X0168450Y0041963D01*
X0168499Y0042013D01*
X0168551Y0042061D01*
X0168605Y0042106D01*
X0168662Y0042147D01*
X0168721Y0042186D01*
X0168782Y0042221D01*
X0168845Y0042253D01*
X0168909Y0042281D01*
X0168975Y0042306D01*
X0169042Y0042327D01*
X0169111Y0042344D01*
X0169180Y0042358D01*
X0169249Y0042367D01*
X0169320Y0042373D01*
X0169390Y0042375D01*
M02*
