%
M48
M72
T01C0.01378
T02C0.02756
T03C0.04000
T04C0.04724
T05C0.05118
T06C0.11800
T07C0.12598
%
T01
X130354Y87614
X185079Y101787
X213819Y144701
X255157Y139583
X305945Y204150
X313425Y224228
X329961Y224622
T02
X30000Y250921
X30000Y241079
X60000Y115921
X60000Y106079
T03
X132874Y151000
X142874Y151000
X152874Y151000
X162874Y151000
X172874Y151000
X182874Y151000
X192874Y151000
X202874Y151000
X205000Y166000
X215000Y166000
X225000Y166000
X235000Y166000
X195000Y166000
X185000Y166000
X175000Y166000
X165000Y166000
X155000Y166000
X145000Y166000
X135000Y166000
X125000Y166000
X115000Y166000
X105000Y166000
X95000Y166000
X85000Y166000
X75000Y166000
X65000Y166000
X55000Y166000
X55000Y256000
X65000Y256000
X75000Y256000
X85000Y256000
X95000Y256000
X105000Y256000
X115000Y256000
X125000Y256000
X135000Y256000
X145000Y256000
X155000Y256000
X165000Y256000
X175000Y256000
X185000Y256000
X195000Y256000
X205000Y256000
X215000Y256000
X225000Y256000
X235000Y256000
X180000Y286000
X170000Y286000
X160000Y286000
X150000Y286000
X140000Y286000
X130000Y286000
X120000Y286000
X105000Y286000
X95000Y286000
X85000Y286000
X75000Y286000
X65000Y286000
X55000Y286000
X301969Y261709
X311969Y261709
X321969Y261709
X331969Y261709
T04
X275157Y146315
X294843Y146315
X330157Y146315
X349843Y146315
X349843Y97102
X330157Y97102
X294843Y97102
X275157Y97102
T05
X30000Y46315
X30000Y66000
X30000Y111315
X30000Y131000
T06
X47126Y197496
X58937Y216000
X35315Y216000
T07
X26811Y12811
X381142Y12811
X381142Y304150
X26811Y304150
M30
